<svg xmlns="http://www.w3.org/2000/svg" width="70" height="70" viewBox="0 0 70 70"><path d="M63.84,17.46A3.47,3.47,0,0,0,61,16H30a1.2,1.2,0,1,0,0,2.39H61a1.09,1.09,0,0,1,1,1.48l-2.22,5.82H26.31a1.2,1.2,0,0,0,0,2.4H58.85L54.09,40.53a5.35,5.35,0,0,1-5,3.42H26.54a5.33,5.33,0,0,1-5.33-5.32V14.21a6.88,6.88,0,0,0-6.87-6.88H6.74a1.2,1.2,0,0,0,0,2.39h7.6a4.49,4.49,0,0,1,4.48,4.49V38.63a7.72,7.72,0,0,0,7.72,7.72H49.12a7.76,7.76,0,0,0,7.2-5l7.9-20.71A3.46,3.46,0,0,0,63.84,17.46Z"/><path d="M24.17,50.42a6.13,6.13,0,1,0,6.12,6.12A6.13,6.13,0,0,0,24.17,50.42Zm0,9.86a3.74,3.74,0,1,1,3.73-3.74A3.74,3.74,0,0,1,24.17,60.28Z"/><path d="M50,50.42a6.13,6.13,0,1,0,6.12,6.12A6.13,6.13,0,0,0,50,50.42Zm0,9.86a3.74,3.74,0,1,1,3.73-3.74A3.75,3.75,0,0,1,50,60.28Z"/></svg>