<svg xmlns="http://www.w3.org/2000/svg" width="121.12" height="100.32" viewBox="0 0 121.12 100.32"><path d="M37.45,56.6H1.5a1.5,1.5,0,0,1,0-3h36a1.5,1.5,0,0,1,0,3Z"/><path d="M76.93,56.6H52.6a1.5,1.5,0,0,1,0-3H76.93a1.5,1.5,0,0,1,0,3Z"/><path d="M8.86,64.2a1.53,1.53,0,0,1-1.07-.44,1.51,1.51,0,0,1,0-2.12l6.54-6.54L7.79,48.56a1.5,1.5,0,0,1,2.13-2.12l8.66,8.66L9.92,63.76A1.53,1.53,0,0,1,8.86,64.2Z"/><path d="M45.23,100.32a1.5,1.5,0,0,1-1.5-1.5V62.11a1.5,1.5,0,0,1,3,0V98.82A1.5,1.5,0,0,1,45.23,100.32Z"/><path d="M45.23,48.42a1.5,1.5,0,0,1-1.5-1.5V11.38a1.5,1.5,0,0,1,3,0V46.92A1.5,1.5,0,0,1,45.23,48.42Z"/><path d="M45.22,28.45l-8.66-8.66a1.5,1.5,0,1,1,2.13-2.12l6.53,6.54,6.54-6.54a1.5,1.5,0,1,1,2.13,2.12Z"/><path d="M52.83,93a1.53,1.53,0,0,1-1.07-.44L45.22,86l-6.53,6.54a1.5,1.5,0,0,1-2.13-2.12l8.66-8.66,8.67,8.66a1.51,1.51,0,0,1,0,2.12A1.53,1.53,0,0,1,52.83,93Z"/><path d="M39.47,50.84a1.47,1.47,0,0,1-1.06-.44L13.25,25.24a1.49,1.49,0,0,1,0-2.12,1.51,1.51,0,0,1,2.12,0L40.53,48.28a1.49,1.49,0,0,1,0,2.12A1.47,1.47,0,0,1,39.47,50.84Z"/><path d="M76.14,87.52a1.47,1.47,0,0,1-1.06-.44L49.14,61.13A1.5,1.5,0,0,1,51.26,59L77.2,85a1.49,1.49,0,0,1,0,2.12A1.47,1.47,0,0,1,76.14,87.52Z"/><path d="M65.57,87.69a1.5,1.5,0,0,1-1.5-1.5V73.94H76.32a1.5,1.5,0,0,1,0,3H67.07v9.25A1.5,1.5,0,0,1,65.57,87.69Z"/><path d="M26.38,36.26H14.13a1.5,1.5,0,0,1,0-3h9.25V24a1.5,1.5,0,0,1,3,0Z"/><path d="M14.31,87.52a1.47,1.47,0,0,1-1.06-.44,1.49,1.49,0,0,1,0-2.12L39,59.2a1.51,1.51,0,0,1,2.12,0,1.49,1.49,0,0,1,0,2.12L15.37,87.08A1.47,1.47,0,0,1,14.31,87.52Z"/><path d="M50.77,51.05a1.47,1.47,0,0,1-1.06-.44,1.49,1.49,0,0,1,0-2.12l8.22-8.22a1.5,1.5,0,0,1,2.12,2.12l-8.22,8.22A1.47,1.47,0,0,1,50.77,51.05Z"/><path d="M24.88,87.69a1.5,1.5,0,0,1-1.5-1.5V76.94H14.13a1.5,1.5,0,1,1,0-3H26.38V86.19A1.5,1.5,0,0,1,24.88,87.69Z"/><path d="M106.17,91.87h0a2,2,0,0,1-1.86-1.21l-2.78-6.27a10.63,10.63,0,0,0-4.16-4.12l-5.1-2.81a2,2,0,0,1-1-1.78,2,2,0,0,1,1-1.79l5-2.72a1.5,1.5,0,1,1,1.45,2.63l-3.42,1.88,3.57,2A13.64,13.64,0,0,1,104.19,83l.06.11,1.93,4.37,2.15-4.71a13.49,13.49,0,0,1,5.35-5.27l3.41-1.85-3.84-2.16a13.74,13.74,0,0,1-5.34-5.43l-.09-.18L106.15,64l-1.8,4.09a1.5,1.5,0,0,1-2.75-1.21l2.7-6.11a2,2,0,0,1,3.73,0l2.55,5.94a10.73,10.73,0,0,0,4.14,4.18l5.36,3a2,2,0,0,1,0,3.57l-4.94,2.68a10.55,10.55,0,0,0-4.18,4.12L108,90.67A2,2,0,0,1,106.17,91.87Zm12.44-15.36ZM93.72,74.83h0Z"/><path d="M87.24,59.73h0a2.78,2.78,0,0,1-2.56-1.67l-5.2-11.74a22.35,22.35,0,0,0-8.78-8.76l-9.58-5.28a2.79,2.79,0,0,1,0-4.91l9.28-5.12a1.51,1.51,0,0,1,2,.6,1.49,1.49,0,0,1-.59,2l-9,4.95,9.27,5.1a25.4,25.4,0,0,1,10,9.92c0,.07.08.15.12.24l5,11.36,5.33-11.76a1.63,1.63,0,0,1,.11-.23,25.14,25.14,0,0,1,9.95-9.8l9-4.86-9.79-5.51a25.41,25.41,0,0,1-9.9-10.06c0-.09-.09-.18-.13-.27L87.21,3.29l-4.87,11a1.5,1.5,0,1,1-2.74-1.21l5-11.44A2.82,2.82,0,0,1,87.21,0h0a2.81,2.81,0,0,1,2.57,1.7l4.75,11.09a22.44,22.44,0,0,0,8.74,8.89l10.1,5.68a2.8,2.8,0,0,1,0,4.91l-9.28,5a22.16,22.16,0,0,0-8.75,8.61L89.8,58.08A2.78,2.78,0,0,1,87.24,59.73Z"/><path d="M45,63.62a9.11,9.11,0,1,1,9.1-9.1A9.11,9.11,0,0,1,45,63.62Zm0-15.21a6.11,6.11,0,1,0,6.1,6.11A6.11,6.11,0,0,0,45,48.41Z"/></svg>