<svg xmlns="http://www.w3.org/2000/svg" width="70.57" height="78.27" viewBox="0 0 70.57 78.27"><path d="M1.5,53.24A1.5,1.5,0,0,1,0,51.74V13C0,9.77,2.31,7.16,5.15,7.16h7a1.5,1.5,0,1,1,0,3h-7C4,10.16,3,11.45,3,13V51.74A1.5,1.5,0,0,1,1.5,53.24Z"/><path d="M20.81,17.23H16.7a4.6,4.6,0,0,1-4.6-4.6v-8A4.6,4.6,0,0,1,16.7,0h4.11a4.61,4.61,0,0,1,4.6,4.6v8A4.61,4.61,0,0,1,20.81,17.23ZM16.7,3a1.6,1.6,0,0,0-1.6,1.6v8a1.59,1.59,0,0,0,1.6,1.6h4.11a1.6,1.6,0,0,0,1.6-1.6v-8A1.6,1.6,0,0,0,20.81,3Z"/><path d="M53.5,17.23H49.39a4.61,4.61,0,0,1-4.6-4.6v-8A4.61,4.61,0,0,1,49.39,0H53.5a4.6,4.6,0,0,1,4.6,4.6v8A4.6,4.6,0,0,1,53.5,17.23ZM49.39,3a1.6,1.6,0,0,0-1.6,1.6v8a1.6,1.6,0,0,0,1.6,1.6H53.5a1.6,1.6,0,0,0,1.6-1.6v-8A1.6,1.6,0,0,0,53.5,3Z"/><path d="M67.94,26.38H3a1.5,1.5,0,1,1,0-3h65a1.5,1.5,0,0,1,0,3Z"/><path d="M35.48,10.16H25.57a1.5,1.5,0,0,1,0-3h9.91a1.5,1.5,0,0,1,0,3Z"/><path d="M65.43,78.27H5.16C2.31,78.27,0,75.66,0,72.44v-5.1a1.5,1.5,0,0,1,3,0v5.1C3,74,4,75.27,5.16,75.27H65.43c1.16,0,2.14-1.29,2.14-2.83V13c0-1.54-1-2.83-2.14-2.83H56.6a1.5,1.5,0,0,1,0-3h8.83c2.83,0,5.14,2.61,5.14,5.83V72.44C70.57,75.66,68.26,78.27,65.43,78.27Z"/><path d="M46.3,10.16H35.48a1.5,1.5,0,0,1,0-3H46.3a1.5,1.5,0,0,1,0,3Z"/><path d="M30,65.5,13.67,48.63a1.5,1.5,0,1,1,2.15-2.08L30,61.23l28.1-27.77a1.5,1.5,0,0,1,2.11,2.13Z"/></svg>