<svg xmlns="http://www.w3.org/2000/svg" width="125.78" height="88.62" viewBox="0 0 125.78 88.62"><path d="M62.89,67a24,24,0,0,1-24-24,36.53,36.53,0,0,1,3.64-14.73,1.5,1.5,0,0,1,2.74,1.23A33.5,33.5,0,0,0,41.88,43a21,21,0,0,0,42,0C83.9,27.91,67.29,9,62.88,4.3a121.14,121.14,0,0,0-9.25,11.16,1.5,1.5,0,0,1-2.42-1.76A115.65,115.65,0,0,1,61.83,1.07L62.89,0,64,1.07c.94,1,23,23.4,23,41.9A24,24,0,0,1,62.89,67Z"/><path d="M33.38,71.52a1.65,1.65,0,0,1-.43-.06c-6.48-1.93-9.77-4.42-9.77-7.39,0-5.7,12.28-8.39,19.6-9.49a1.5,1.5,0,1,1,.45,3c-12.51,1.87-17,4.93-17,6.52,0,1,2,2.84,7.63,4.52a1.5,1.5,0,0,1-.43,2.93Z"/><path d="M64.69,74.93a1.5,1.5,0,0,1,0-3c21.64-.24,34.92-4.74,34.92-7.86,0-1.59-4.54-4.65-17-6.52a1.5,1.5,0,1,1,.45-3c7.32,1.1,19.6,3.79,19.6,9.49,0,7.17-19.64,10.65-37.88,10.86Z"/><path d="M62.89,88.62C32,88.62,0,80.83,0,67.8c0-4.3,3.61-8.35,10.43-11.71a1.5,1.5,0,0,1,1.32,2.69c-5.64,2.78-8.75,6-8.75,9,0,8.61,24.07,17.82,59.89,17.82s59.89-9.21,59.89-17.82c0-5.11-8.68-10.4-22.65-13.81a1.5,1.5,0,1,1,.71-2.91c16.08,3.92,24.94,9.86,24.94,16.72C125.78,80.83,93.8,88.62,62.89,88.62Z"/></svg>