<?xml version="1.0" encoding="utf-8"?>
<!-- Generator: Adobe Illustrator 25.1.0, SVG Export Plug-In . SVG Version: 6.00 Build 0)  -->
<svg version="1.1" xmlns="http://www.w3.org/2000/svg" xmlns:xlink="http://www.w3.org/1999/xlink" x="0px" y="0px"
	 viewBox="0 0 70 70" style="enable-background:new 0 0 70 70;" xml:space="preserve">
<style type="text/css">
	.st0{fill-rule:evenodd;clip-rule:evenodd;}
	.st1{fill:#FFFFFF;stroke:#D2D2D2;stroke-miterlimit:10;}
	.st2{fill:#253B80;}
	.st3{fill:#179BD7;}
	.st4{fill:#EB7094;stroke:#D2D2D2;stroke-miterlimit:10;}
	.st5{fill:#26A6D1;stroke:#D2D2D2;stroke-miterlimit:10;}
	.st6{fill:#FFFFFF;}
	.st7{fill:#FFB3C7;stroke:#D2D2D2;stroke-miterlimit:10;}
	.st8{fill:#0A0B09;}
	.st9{fill:#F79E1B;}
	.st10{fill:#FF5F00;}
	.st11{fill:#EB001B;}
	.st12{fill:#00579F;}
	.st13{fill:#FAA61A;}
	.st14{fill:#1D1D1B;}
</style>
<g id="Ebene_1">
</g>
<g id="Ebene_2">
	<g>
		<g>
			<path class="st14" d="M29.9,61.3c-2.2,0-3.9-0.6-5.2-1.9c-0.5-0.5-0.5-1.3,0-1.8c0.5-0.5,1.3-0.5,1.8,0c0.8,0.8,1.9,1.2,3.4,1.2
				c1.5,0,3.5-0.1,5.5-1.2l8-4.2c0.7-0.4,1-0.8,0.9-1.5c-0.1-0.8-0.7-1.5-1-1.6l-2.9,1.3c0,0-0.1,0-0.1,0.1
				c-1.5,0.5-2.4,0.7-3.1,0.7c-0.8,0-2-0.4-2-3.2c0-1.4,0.6-4.1,1.7-8.4c1-3.8,1.6-6.2,1.6-8.1c0-1.5-0.2-2.4-0.5-2.9
				c-5.4,0-9.2,0.3-11.5,0.8l0.1,0.1c1.3,1.7,2,3.5,2,5.5c0,1.1-0.4,2.4-1.1,5.2c-0.2,0.6-0.3,1.2-0.5,2c-0.6,2.2-1,4.5-1.2,6.1
				c-0.1,0.7-0.8,1.2-1.5,1.1c-0.7-0.1-1.2-0.8-1.1-1.5c0.2-1.7,0.6-4.1,1.3-6.5c0.2-0.7,0.4-1.4,0.5-2c0.7-2.5,1.1-3.8,1.1-4.5
				c0-1.4-0.5-2.6-1.5-3.9c0,0,0,0,0,0l-0.5-0.7c-0.2-0.3-0.3-0.6-0.2-1l0.2-1.1c0.1-0.5,0.4-0.9,0.9-1c2.5-0.8,7-1.1,13.9-1.1
				c0.4,0,0.7,0.2,1,0.4c0.9,1.1,1.4,2.7,1.4,5.1c0,2.1-0.6,4.4-1.7,8.7c-1.3,5-1.6,7-1.6,7.7c0,0.2,0,0.4,0,0.5
				c0.3-0.1,0.9-0.2,1.6-0.5l2.9-1.4c1.4-0.7,3.2,0.3,4.1,2.1c0.9,1.9,0.7,4.4-1.8,5.7l-8,4.2C34.1,61.1,31.5,61.3,29.9,61.3z"/>
		</g>
		<g>
			<path class="st14" d="M34.7,23c-2.4,0-4.3-0.7-5.7-2c-1.4-1.3-2.1-3-2.1-5.1c0-2.1,0.9-3.8,2.6-5.2c1.6-1.3,3.6-2,5.9-2
				c2.3,0,4.2,0.6,5.5,1.7c1.4,1.2,2.1,2.9,2.1,5c0,2.1-0.8,3.9-2.5,5.4C39,22.2,37,23,34.7,23z M35.4,11.3c-1.7,0-3.1,0.5-4.3,1.4
				c-1.1,0.9-1.6,1.9-1.6,3.2c0,1.3,0.4,2.4,1.3,3.2c0.9,0.8,2.2,1.3,3.9,1.3c1.7,0,3.1-0.5,4.2-1.5c1.1-1,1.6-2.1,1.6-3.5
				c0-1.3-0.4-2.3-1.2-3C38.4,11.7,37.1,11.3,35.4,11.3z"/>
		</g>
	</g>
</g>
</svg>
