<svg xmlns="http://www.w3.org/2000/svg" width="70" height="70" viewBox="0 0 70 70"><path d="M51.14,21.33,44.55,11A11.26,11.26,0,0,0,35,5.8h0A11.26,11.26,0,0,0,25.45,11l-6.59,10.3a15.87,15.87,0,0,0-2.49,8.54v26a8.37,8.37,0,0,0,8.37,8.36H45.26a8.37,8.37,0,0,0,8.37-8.36v-26A15.87,15.87,0,0,0,51.14,21.33Zm.12,34.51a6,6,0,0,1-6,6H24.74a6,6,0,0,1-6-6v-26a13.51,13.51,0,0,1,2.12-7.26l6.59-10.3a9,9,0,0,1,15.1,0l6.59,10.3a13.51,13.51,0,0,1,2.12,7.26Z"/><path d="M35,24.69a6,6,0,1,0-6-6A6,6,0,0,0,35,24.69ZM35,15a3.64,3.64,0,1,1-3.64,3.64A3.64,3.64,0,0,1,35,15Z"/><path d="M35.19,42c-.71-.3-1.38-.58-2-.89a3.41,3.41,0,0,1-1.77-3.71,3.06,3.06,0,0,1,1.63-2c1.53-.8,3.75-.71,6.26.26a1.19,1.19,0,0,0,.86-2.21,13.65,13.65,0,0,0-4-.92V30.16a1.19,1.19,0,0,0-2.38,0v2.42a6.62,6.62,0,0,0-1.83.64,5.46,5.46,0,0,0-2.84,3.57,5.74,5.74,0,0,0,3,6.36c.69.37,1.45.68,2.19,1,2,.82,3.89,1.6,4.63,3.44a3.28,3.28,0,0,1,.16,2A3.56,3.56,0,0,1,37,51.9a8.19,8.19,0,0,1-6.84-.49,1.19,1.19,0,0,0-1,2.13,12.25,12.25,0,0,0,4.68,1.23v2.09a1.19,1.19,0,0,0,2.38,0V54.64A7.91,7.91,0,0,0,38,54.05a5.85,5.85,0,0,0,3.36-3.92,5.63,5.63,0,0,0-.25-3.43C40,43.93,37.45,42.88,35.19,42Z"/></svg>