<svg xmlns="http://www.w3.org/2000/svg" width="131.48" height="84.46" viewBox="0 0 131.48 84.46"><path d="M126.23,57.33a9.13,9.13,0,0,1-2.72-.42c-2.93-.92-5.52-3.33-7.3-6.8l-3.85-7.52c-1.76-3.45-4.33-5.42-7-5.42s-5.29,2-7,5.42L94.6,49.73c-3.26,6.36-9,8.85-14.2,6.21a1.67,1.67,0,0,1-.73-2.23A1.65,1.65,0,0,1,81.9,53c3.52,1.77,7.35-.09,9.74-4.76l3.66-7.15c2.36-4.59,6-7.22,10-7.22s7.65,2.63,10,7.22l3.86,7.52c1.37,2.67,3.26,4.5,5.33,5.16a5.8,5.8,0,0,0,4.54-.47,1.66,1.66,0,0,1,1.56,2.93A9.23,9.23,0,0,1,126.23,57.33Z"/><path d="M1.38,58.07a1.38,1.38,0,0,1-.31-2.73,9.24,9.24,0,0,0,5.54-4.67L13.41,39c2.34-4,5.75-6.31,9.45-6.21s7.19,2.56,9.46,6.82l4.61,8.67a13.55,13.55,0,0,0,1.68,2.49,7.7,7.7,0,0,0,4.74,2.82,1.37,1.37,0,0,0,.71-.67,123.62,123.62,0,0,0,4.76-11.55,121.49,121.49,0,0,0,5-18.59,1,1,0,0,1,.09-.33l2.11-5.94A9.26,9.26,0,0,1,67.88,10.9l2.42.86a1.38,1.38,0,1,1-.93,2.6L67,13.5a6.5,6.5,0,0,0-8.3,3.95l-2.1,5.89a123.47,123.47,0,0,1-5.12,19,127.62,127.62,0,0,1-4.87,11.81,4.13,4.13,0,0,1-2.48,2.15,2.29,2.29,0,0,1-.9.09,10.3,10.3,0,0,1-6.67-3.78,16.3,16.3,0,0,1-2-3l-4.61-8.67c-1.78-3.35-4.36-5.3-7.08-5.35h-.11c-2.59,0-5.1,1.75-6.89,4.83L9,52.06c-1.86,3.18-4.45,5.31-7.3,6A1.73,1.73,0,0,1,1.38,58.07Zm41.86-4.44h0Zm13.3-30.25h0Zm0-.11v0Z"/><path d="M67.05,84.46A8.59,8.59,0,0,1,64.2,84l-20.51-7.3a8.48,8.48,0,0,1-5.19-5.25,1.39,1.39,0,0,1,2.62-.9,5.73,5.73,0,0,0,3.5,3.55l20.51,7.29a5.76,5.76,0,0,0,7.36-3.5l2.29-6.46A125.83,125.83,0,0,1,87.91,34.49l2.34-6.59a5.78,5.78,0,0,0-3.49-7.36L83.4,19.35a1.38,1.38,0,1,1,.93-2.6l3.35,1.19a8.53,8.53,0,0,1,5.18,10.89l-2.47,6.9A122.83,122.83,0,0,0,77.49,72l-.06.22-2.34,6.56A8.53,8.53,0,0,1,67.05,84.46Zm22.13-49.4h0Z"/><path d="M84.7,19.81,68.07,13.9,72,2.82A4.23,4.23,0,0,1,74.19.41,4.29,4.29,0,0,1,77.45.25l8.61,3.06a4.25,4.25,0,0,1,2.58,5.43ZM71.6,12.22,83,16.28l3-8.47A1.48,1.48,0,0,0,86,6.68a1.46,1.46,0,0,0-.84-.76L76.52,2.85a1.5,1.5,0,0,0-1.14.06,1.46,1.46,0,0,0-.76.84Zm15.74-4h0Z"/><path d="M87.64,36.2a1.55,1.55,0,0,1-.47-.08L55.35,24.8a1.39,1.39,0,1,1,.93-2.61L88.1,33.51a1.39,1.39,0,0,1-.46,2.69Z"/><path d="M74.7,72.58a1.29,1.29,0,0,1-.47-.08L50.32,64a1.39,1.39,0,0,1,.93-2.61L75.16,69.9a1.38,1.38,0,0,1-.46,2.68Z"/><path d="M19.17,71.69a6.28,6.28,0,1,1,6.27-6.27A6.28,6.28,0,0,1,19.17,71.69Zm0-9.79a3.52,3.52,0,1,0,3.51,3.52A3.53,3.53,0,0,0,19.17,61.9Z"/><path d="M106.7,66.54A6.28,6.28,0,1,1,113,60.27,6.27,6.27,0,0,1,106.7,66.54Zm0-9.79a3.52,3.52,0,1,0,3.52,3.52A3.52,3.52,0,0,0,106.7,56.75Z"/><path d="M22.9,52.77a4,4,0,1,1,4-4A4,4,0,0,1,22.9,52.77Zm0-5.85a1.82,1.82,0,1,0,1.82,1.82A1.81,1.81,0,0,0,22.9,46.92Z"/><path d="M90.76,79.06a4,4,0,1,1,4-4A4,4,0,0,1,90.76,79.06Zm0-5.85A1.82,1.82,0,1,0,92.58,75,1.82,1.82,0,0,0,90.76,73.21Z"/></svg>