<svg xmlns="http://www.w3.org/2000/svg" width="108.83" height="29" viewBox="0 0 108.83 29"><path d="M13.06,0H4.59A1.18,1.18,0,0,0,3.43,1L0,22.7a.7.7,0,0,0,.7.81h4a1.17,1.17,0,0,0,1.16-1l.92-5.85a1.18,1.18,0,0,1,1.16-1h2.68c5.58,0,8.8-2.7,9.64-8,.38-2.34,0-4.18-1.08-5.47S15.89,0,13.06,0Zm1,7.93c-.47,3-2.79,3-5,3H7.73l.9-5.68a.7.7,0,0,1,.69-.59h.59c1.53,0,3,0,3.72.87A2.83,2.83,0,0,1,14,7.93Z" fill="#253b80"/><path d="M38.36,7.83h-4a.71.71,0,0,0-.7.6l-.18,1.13-.28-.41c-.88-1.27-2.84-1.7-4.79-1.7a9.32,9.32,0,0,0-9,8.15,7.63,7.63,0,0,0,1.51,6.23,6.36,6.36,0,0,0,5.11,2.06,7.75,7.75,0,0,0,5.61-2.32l-.18,1.13a.7.7,0,0,0,.69.81H35.7a1.19,1.19,0,0,0,1.17-1L39.06,8.65A.71.71,0,0,0,38.36,7.83Zm-5.65,7.89a4.51,4.51,0,0,1-4.57,3.87,3.42,3.42,0,0,1-2.72-1.09,3.45,3.45,0,0,1-.64-2.85,4.53,4.53,0,0,1,4.54-3.9A3.44,3.44,0,0,1,32,12.85,3.53,3.53,0,0,1,32.71,15.72Z" fill="#253b80"/><path d="M60,7.83H55.88a1.17,1.17,0,0,0-1,.52l-5.61,8.27-2.39-8a1.17,1.17,0,0,0-1.12-.84h-4a.71.71,0,0,0-.67.93l4.49,13.17-4.22,6A.7.7,0,0,0,42,29H46a1.18,1.18,0,0,0,1-.5L60.53,8.94A.71.71,0,0,0,60,7.83Z" fill="#253b80"/><path d="M73.44,0H65a1.17,1.17,0,0,0-1.16,1L60.39,22.7a.7.7,0,0,0,.69.81h4.35a.82.82,0,0,0,.81-.69l1-6.15a1.17,1.17,0,0,1,1.16-1h2.68c5.58,0,8.79-2.7,9.64-8,.38-2.34,0-4.18-1.09-5.47S76.27,0,73.44,0Zm1,7.93c-.46,3-2.78,3-5,3H68.11L69,5.29a.7.7,0,0,1,.69-.59h.59c1.53,0,3,0,3.71.87A2.8,2.8,0,0,1,74.41,7.93Z" fill="#179bd7"/><path d="M98.74,7.83h-4a.7.7,0,0,0-.7.6l-.18,1.13-.28-.41c-.88-1.27-2.84-1.7-4.79-1.7a9.32,9.32,0,0,0-9,8.15,7.66,7.66,0,0,0,1.51,6.23,6.36,6.36,0,0,0,5.11,2.06,7.75,7.75,0,0,0,5.61-2.32l-.18,1.13a.7.7,0,0,0,.7.81h3.65a1.18,1.18,0,0,0,1.16-1L99.44,8.65A.71.71,0,0,0,98.74,7.83Zm-5.65,7.89a4.51,4.51,0,0,1-4.57,3.87,3.46,3.46,0,0,1-2.73-1.09,3.44,3.44,0,0,1-.63-2.85,4.53,4.53,0,0,1,4.54-3.9,3.41,3.41,0,0,1,2.7,1.1A3.5,3.5,0,0,1,93.09,15.72Z" fill="#179bd7"/><path d="M103.52.6,100,22.7a.71.71,0,0,0,.7.81h3.49a1.16,1.16,0,0,0,1.16-1L108.82.82a.71.71,0,0,0-.7-.82h-3.91A.7.7,0,0,0,103.52.6Z" fill="#179bd7"/></svg>