<?xml version="1.0" encoding="utf-8"?>
<!-- Generator: Adobe Illustrator 25.1.0, SVG Export Plug-In . SVG Version: 6.00 Build 0)  -->
<svg version="1.1" id="Ebene_1" xmlns="http://www.w3.org/2000/svg" xmlns:xlink="http://www.w3.org/1999/xlink" x="0px" y="0px"
	 viewBox="0 0 131 66" style="enable-background:new 0 0 131 66;" xml:space="preserve">
<style type="text/css">
	.st0{fill:#FFFFFF;stroke:#FFFFFF;stroke-miterlimit:10;}
	.st1{fill:#F79E1B;}
	.st2{fill:#FF5F00;}
	.st3{fill:#EB001B;}
</style>
<path class="st0" d="M11.6,0.5h107.9c6.1,0,11.1,5,11.1,11.1v42.9c0,6.1-5,11.1-11.1,11.1H11.6c-6.1,0-11.1-5-11.1-11.1V11.6
	C0.5,5.5,5.5,0.5,11.6,0.5z"/>
<path class="st1" d="M98.9,46.6v-0.7h0.3v-0.1h-0.7v0.1h0.3v0.7H98.9z M100.3,46.6v-0.8H100l-0.2,0.6l-0.3-0.6h-0.2v0.8h0.2v-0.7
	l0.2,0.6h0.2l0.2-0.6v0.7H100.3z"/>
<rect x="55" y="15.8" class="st2" width="21.1" height="34.5"/>
<path class="st3" d="M57.1,33c0-6.7,3.1-13.1,8.4-17.2C56,8.3,42.2,10,34.7,19.5s-5.8,23.3,3.7,30.8c7.9,6.2,19.1,6.2,27.1,0
	C60.2,46.1,57.1,39.7,57.1,33z"/>
<path class="st1" d="M101,33c0,12.1-9.8,21.9-21.8,22c-5,0-9.8-1.7-13.7-4.7C75,42.7,76.7,29,69.2,19.5c-1.1-1.4-2.3-2.6-3.7-3.7
	c9.5-7.5,23.3-5.9,30.8,3.6C99.3,23.3,101,28.1,101,33z"/>
</svg>
