<?xml version="1.0" encoding="utf-8"?>
<!-- Generator: Adobe Illustrator 25.1.0, SVG Export Plug-In . SVG Version: 6.00 Build 0)  -->
<svg version="1.1" id="Ebene_1" xmlns="http://www.w3.org/2000/svg" xmlns:xlink="http://www.w3.org/1999/xlink" x="0px" y="0px"
	 viewBox="0 0 131 66" style="enable-background:new 0 0 131 66;" xml:space="preserve">
<style type="text/css">
	.st0{fill:#FFFFFF;stroke:#FFFFFF;stroke-miterlimit:10;}
	.st1{fill:#3C4043;}
	.st2{fill:#4285F4;}
	.st3{fill:#34A853;}
	.st4{fill:#FABB05;}
	.st5{fill:#E94235;}
</style>
<path class="st0" d="M11.6,0.5h107.9c6.1,0,11.1,5,11.1,11.1v42.9c0,6.1-5,11.1-11.1,11.1H11.6c-6.1,0-11.1-5-11.1-11.1V11.6
	C0.5,5.5,5.5,0.5,11.6,0.5z"/>
<g id="G_Pay_Lockup_1_">
	<g id="Pay_Typeface_3_">
		<path id="Letter_p_3_" class="st1" d="M62.2,35.5v11.6h-3.7V18.4h9.8c2.5,0,4.6,0.8,6.3,2.5c1.8,1.7,2.7,3.7,2.7,6.1
			s-0.9,4.5-2.7,6.1c-1.7,1.6-3.8,2.4-6.3,2.4H62.2L62.2,35.5z M62.2,22v10h6.2c1.5,0,2.7-0.5,3.7-1.5s1.5-2.2,1.5-3.5
			s-0.5-2.5-1.5-3.5S69.9,22,68.4,22H62.2L62.2,22z"/>
		<path id="Letter_a_3_" class="st1" d="M86.9,26.9c2.7,0,4.9,0.7,6.5,2.2s2.4,3.5,2.4,6v12.1h-3.5v-2.7H92
			c-1.5,2.2-3.6,3.4-6.1,3.4c-2.2,0-4-0.6-5.4-1.9c-1.5-1.3-2.2-2.9-2.2-4.8c0-2,0.8-3.7,2.3-4.8c1.5-1.2,3.6-1.8,6.2-1.8
			c2.2,0,4,0.4,5.4,1.2V35c0-1.3-0.5-2.4-1.5-3.3c-1-0.9-2.2-1.3-3.6-1.3c-2.1,0-3.7,0.9-4.9,2.6L79,31
			C80.7,28.2,83.4,26.9,86.9,26.9z M82.1,41.1c0,1,0.4,1.8,1.2,2.4c0.8,0.6,1.8,1,2.9,1c1.6,0,2.9-0.6,4.2-1.7
			c1.2-1.2,1.8-2.5,1.8-4.1c-1.2-0.9-2.7-1.4-4.8-1.4c-1.5,0-2.7,0.4-3.7,1.1C82.6,39.2,82.1,40.1,82.1,41.1z"/>
		<path id="Letter_y_3_" class="st1" d="M115.8,27.5l-12.3,28.3h-3.8l4.6-9.9l-8.1-18.4h4l5.8,14.1h0.1l5.7-14.1
			C111.8,27.5,115.8,27.5,115.8,27.5z"/>
	</g>
	<g id="G_Mark_1_">
		<path id="Blue_500" class="st2" d="M47.5,33.2c0-1.2-0.1-2.4-0.3-3.5H31.7V36h8.9c-0.4,2.1-1.5,3.9-3.3,5.1v4.1h5.3
			C45.7,42.4,47.5,38.2,47.5,33.2z"/>
		<path id="Green_500_1_" class="st3" d="M37.3,41.2c-1.5,1-3.4,1.6-5.6,1.6c-4.3,0-7.9-2.9-9.2-6.8H17v4.2
			c2.7,5.4,8.3,9.1,14.7,9.1c4.4,0,8.2-1.5,10.9-4L37.3,41.2z"/>
		<path id="Yellow_500_1_" class="st4" d="M21.9,32.8c0-1.1,0.2-2.2,0.5-3.2v-4.2H17c-1.1,2.2-1.8,4.7-1.8,7.4s0.6,5.2,1.8,7.4
			l5.5-4.2C22.1,35,21.9,33.9,21.9,32.8z"/>
		<path id="Red_500" class="st5" d="M31.7,22.9c2.4,0,4.6,0.8,6.3,2.5l4.7-4.7c-2.9-2.7-6.6-4.3-11-4.3c-6.4,0-12,3.7-14.7,9.1
			l5.5,4.2C23.8,25.8,27.4,22.9,31.7,22.9z"/>
	</g>
</g>
</svg>
