<svg xmlns="http://www.w3.org/2000/svg" width="131" height="66" viewBox="0 0 131 66"><rect x="0.5" y="0.5" width="130" height="65" rx="11.06" fill="#ffb3c7" stroke="#d2d2d2" stroke-miterlimit="10"/><path d="M112.79,38.43a2.89,2.89,0,1,0,2.86,2.88A2.86,2.86,0,0,0,112.79,38.43Zm-9.39-2.22a4.13,4.13,0,1,0-4.12,3.94A4,4,0,0,0,103.4,36.21Zm0-7.67H108V43.87h-4.55v-1A7.86,7.86,0,0,1,98.9,44.3a8.09,8.09,0,0,1,0-16.18,7.93,7.93,0,0,1,4.51,1.4v-1Zm-36.4,2v-2H62.35V43.87H67V36.71C67,34.3,69.61,33,71.41,33h.06V28.54a5.64,5.64,0,0,0-4.46,2Zm-11.6,5.67a4.13,4.13,0,1,0-4.13,3.94A4,4,0,0,0,55.41,36.21Zm0-7.67H60V43.87H55.42v-1a7.86,7.86,0,0,1-4.51,1.41,8.09,8.09,0,0,1,0-16.18,7.93,7.93,0,0,1,4.51,1.4v-1Zm27.38-.41a5.5,5.5,0,0,0-4.68,2.14V28.54H73.59V43.87h4.58V35.81a3.22,3.22,0,0,1,3.42-3.47c2,0,3.15,1.21,3.15,3.44v8.09h4.54V34.12c0-3.57-2.81-6-6.48-6ZM36.27,43.87H41V21.71H36.27Zm-20.92,0h5V21.7h-5ZM33,21.7a17.75,17.75,0,0,1-5.16,12.59l7,9.59H28.57L21,33.46,23,32a12.78,12.78,0,0,0,5.1-10.28Z" fill="#0a0b09"/></svg>