<?xml version="1.0" encoding="utf-8"?>
<!-- Generator: Adobe Illustrator 25.1.0, SVG Export Plug-In . SVG Version: 6.00 Build 0)  -->
<svg version="1.1" id="Ebene_1" xmlns="http://www.w3.org/2000/svg" xmlns:xlink="http://www.w3.org/1999/xlink" x="0px" y="0px"
	 viewBox="0 0 131 66" style="enable-background:new 0 0 131 66;" xml:space="preserve">
<style type="text/css">
	.st0{fill:#FFFFFF;stroke:#FFFFFF;stroke-miterlimit:10;}
	.st1{fill:#5A31F4;}
</style>
<path class="st0" d="M11.6,0.5h107.9c6.1,0,11.1,5,11.1,11.1v42.9c0,6.1-5,11.1-11.1,11.1H11.6c-6.1,0-11.1-5-11.1-11.1V11.6
	C0.5,5.5,5.5,0.5,11.6,0.5z"/>
<g>
	<path class="st1" d="M37.4,28c-0.9-2-2.7-3.2-5.3-3.2c-0.8,0-1.6,0.2-2.3,0.6c-0.7,0.4-1.4,0.9-1.8,1.6l-0.1,0.1v-7.7v-0.1
		c-0.1,0-0.1,0-0.2,0H24h-0.1v0.1v21.9v0.1H24h4h0.1v-0.1V32c0-1.8,1.2-3.1,3.1-3.1c2.1,0,2.6,1.7,2.6,3.5v8.9v0.1h0.1h4H38v-0.1
		v-9.5c0-0.3,0-0.6,0-1C38.1,29.9,37.8,28.9,37.4,28z"/>
	<path class="st1" d="M17.3,31.2c0,0-2.1-0.5-2.8-0.7c-0.8-0.2-2.1-0.6-2.1-1.6s1-1.3,2.1-1.3s2.3,0.3,2.4,1.5v0.1H17h4l0,0l0,0l0,0
		c0,0,0,0,0-0.1c-0.2-3.8-3.6-5.2-6.7-5.2c-3.7,0-6.4,2.4-6.4,5.1c0,2,0.5,3.8,4.9,5.1c0.8,0.2,1.8,0.5,2.7,0.8
		c1.1,0.3,1.7,0.8,1.7,1.5c0,0.8-1.2,1.4-2.4,1.4c-1.7,0-3-0.6-3.1-1.8v-0.1h-0.1h-4l0,0l0,0l0,0l0,0c0.2,3.6,3.7,5.6,6.9,5.6
		c4.8,0,7-2.7,7-5.3C21.6,35,21.4,32.3,17.3,31.2z"/>
	<path class="st1" d="M68.3,24.8c-2,0-3.7,1.1-4.8,2.5V25v-0.1h-0.1h-3.8h-0.1V25v21.5v0.1h0.1h4h0.1v-0.1v-7l0,0
		c0.6,1,2.4,2.1,4.7,2.1c4.3,0,7.9-3.6,7.9-8.4C76.4,28.6,72.8,24.8,68.3,24.8z M68,37.4c-0.9,0-1.7-0.2-2.4-0.7
		c-0.7-0.5-1.3-1.1-1.6-1.9c-0.3-0.8-0.5-1.6-0.3-2.5c0.1-0.8,0.5-1.6,1.1-2.2c0.6-0.6,1.4-1,2.2-1.2c0.8-0.2,1.7-0.1,2.5,0.2
		c0.8,0.3,1.5,0.9,1.9,1.6c0.5,0.7,0.7,1.6,0.7,2.4c0,0.5-0.1,1.1-0.3,1.6c-0.2,0.5-0.5,1-0.9,1.4S70,36.8,69.5,37
		C69.1,37.3,68.5,37.4,68,37.4z"/>
	<path class="st1" d="M47.5,23.9c-3.7,0-5.6,1.3-7.1,2.3l0,0c-0.1,0-0.1,0.1-0.1,0.2s0,0.2,0,0.3l1.5,2.6c0,0,0,0.1,0.1,0.1H42
		c0,0,0.1,0,0.2,0c0,0,0.1,0,0.1-0.1l0.1-0.1c0.8-0.6,2-1.5,5-1.7c1.7-0.1,3.1,0.3,4.2,1.3c1.2,1.1,1.9,2.8,1.9,4.7
		c0,3.4-2,5.5-5.2,5.6c-2.6,0-4.4-1.4-4.4-3.4c0-1.1,0.5-1.8,1.5-2.5c0.1,0,0.1-0.1,0.1-0.2s0-0.2,0-0.3l-1.3-2.5c0,0,0-0.1-0.1-0.1
		c0,0-0.1,0-0.1-0.1h-0.1h-0.1c-1.5,0.9-3.3,2.5-3.2,5.7c0.1,4,3.4,7,7.7,7.1h0.2h0.3c5.1-0.2,8.8-4,8.8-9.1
		C57.3,28.9,53.9,23.9,47.5,23.9z"/>
	<path class="st1" d="M92.3,26.3h-2.6c0,0-0.1,0-0.2,0c0,0,0,0.1,0,0.2v5.4V32c0,0,0.1,0,0.2,0h2.6c1.6,0,2.7-1.2,2.7-2.9
		C95,27.5,93.8,26.3,92.3,26.3z"/>
	<path class="st1" d="M100.1,35.8c0,0.8,0.6,1.2,1.8,1.2c1.6,0,2.5-0.8,2.5-2.3v-0.4l-2.3,0.1C100.8,34.4,100.1,34.9,100.1,35.8z"/>
	<path class="st1" d="M119.1,19.3H84.7c-0.5,0-1.1,0.1-1.6,0.3s-1,0.5-1.4,0.9s-0.7,0.9-0.9,1.4c-0.2,0.5-0.3,1.1-0.3,1.6v18.8
		c0,1.1,0.5,2.2,1.3,3.1c0.8,0.8,1.9,1.3,3.1,1.3h34.3c0.5,0,1.1-0.1,1.6-0.3s1-0.5,1.4-0.9s0.7-0.9,0.9-1.4
		c0.2-0.5,0.3-1.1,0.3-1.6V23.6c0-0.5-0.1-1.1-0.3-1.6c-0.2-0.5-0.5-1-0.9-1.4s-0.9-0.7-1.4-0.9S119.6,19.3,119.1,19.3z M92.4,34.2
		h-2.7c0,0-0.1,0-0.2,0c0,0,0,0.1,0,0.2v3.8c0,0,0,0.1,0,0.2c0,0-0.1,0-0.2,0h-1.9c0,0-0.1,0-0.2,0c0,0,0-0.1,0-0.2V24.4
		c0,0,0-0.1,0-0.2c0,0,0.1,0,0.2,0h5.1c2.9,0,4.9,2.1,4.9,5S95.3,34.2,92.4,34.2L92.4,34.2z M106.6,38.3L106.6,38.3
		c0,0.1,0,0.1,0,0.2c0,0,0,0-0.1,0s0,0-0.1,0h-1.8c0,0,0,0-0.1,0s0,0-0.1,0c0,0,0,0,0-0.1s0,0,0-0.1v-0.4v-0.1c0,0,0,0-0.1,0
		s-0.1,0-0.1,0s0,0-0.1,0c-0.5,0.6-1.4,1-2.8,1c-2.1,0-3.4-1-3.4-2.9c0-0.5,0.1-0.9,0.3-1.3c0.2-0.4,0.5-0.8,0.9-1
		c0.7-0.5,1.9-0.8,3.6-0.9h1.8V32c0-1-0.7-1.5-1.9-1.5s-1.9,0.4-2.1,1c0,0,0,0.1-0.1,0.1h-0.1h-1.8c0,0,0,0-0.1,0c0,0,0,0-0.1,0
		c0,0,0,0,0-0.1s0,0,0-0.1c0.3-1.6,1.6-2.8,4.3-2.8c3,0,4,1.4,4,4L106.6,38.3z M117.8,29.3l-4,10.7c-0.9,2.5-2.5,3.1-4.2,3.1
		c-0.3,0-0.6,0-1-0.1c0,0-0.1,0-0.1-0.1v-0.1V41c0,0,0,0,0-0.1s0,0,0-0.1c0,0,0,0,0.1,0c0,0,0,0,0.1,0c0.3,0,0.5,0.1,0.8,0.1
		c0.5,0,1-0.1,1.4-0.4c0.4-0.3,0.7-0.7,0.8-1.1l0.1-0.4v-0.1l-3.7-9.6v-0.1v-0.1c0,0,0,0,0.1-0.1c0,0,0,0,0.1,0h1.8h0.1
		c0,0,0,0,0.1,0.1l2.6,6.8c0,0,0,0.1,0.1,0.1h0.1h0.1c0,0,0.1,0,0.1-0.1l2.2-6.7c0,0,0-0.1,0.1-0.1h0.1h1.9h0.1
		C117.7,29.1,117.7,29.1,117.8,29.3C117.8,29.1,117.9,29.1,117.8,29.3C117.8,29.2,117.8,29.2,117.8,29.3L117.8,29.3z"/>
</g>
</svg>
