<?xml version="1.0" encoding="utf-8"?>
<!-- Generator: Adobe Illustrator 25.1.0, SVG Export Plug-In . SVG Version: 6.00 Build 0)  -->
<svg version="1.1" id="Ebene_1" xmlns="http://www.w3.org/2000/svg" xmlns:xlink="http://www.w3.org/1999/xlink" x="0px" y="0px"
	 viewBox="0 0 131 66" style="enable-background:new 0 0 131 66;" xml:space="preserve">
<style type="text/css">
	.st0{fill:#26A6D1;stroke:#26A6D1;stroke-miterlimit:10;}
	.st1{fill:#FFFFFF;}
</style>
<path class="st0" d="M11.6,0.5h107.9c6.1,0,11.1,5,11.1,11.1v42.9c0,6.1-5,11.1-11.1,11.1H11.6c-6.1,0-11.1-5-11.1-11.1V11.6
	C0.5,5.5,5.5,0.5,11.6,0.5z"/>
<path class="st1" d="M26.8,20.5l-11.3,25H29l1.7-4h3.8l1.7,4h14.9v-3l1.3,3h7.7l1.3-3.1v3.1h30.9l3.8-3.9l3.5,3.9h15.9L104.2,33
	l11.3-12.5H99.8l-3.7,3.8l-3.4-3.8H59.1l-2.9,6.4l-3-6.4H39.8v2.9l-1.5-2.9H26.8z M29.4,24H36l7.5,17V24h7.2l5.8,12.1L61.8,24H69v18
	h-4.4V28l-6.4,14h-3.9l-6.4-14v14h-9l-1.7-4H28l-1.7,4h-4.8L29.4,24z M73,24h17.8l5.4,5.9l5.6-5.9h5.4l-8.2,9l8.2,8.9h-5.7L96.1,36
	l-5.6,6H73L73,24L73,24z M32.6,27l-3,7.2h6.1L32.6,27z M77.4,27.7V31H87v3.6h-9.7v3.6h10.9l5-5.3l-4.8-5.2L77.4,27.7L77.4,27.7z"/>
</svg>
