<svg xmlns="http://www.w3.org/2000/svg" width="131" height="66" viewBox="0 0 131 66"><rect x="0.5" y="0.5" width="130" height="65" rx="11.06" fill="#fff" stroke="#d2d2d2" stroke-miterlimit="10"/><polygon points="59.34 47.52 51.85 47.52 56.53 18.57 64.02 18.57 59.34 47.52" fill="#00579f"/><path d="M86.48,19.28a18.4,18.4,0,0,0-6.72-1.23c-7.39,0-12.6,3.94-12.63,9.57-.06,4.16,3.73,6.47,6.56,7.86s3.88,2.34,3.88,3.6c0,1.94-2.34,2.84-4.49,2.84a14.93,14.93,0,0,1-7-1.54l-1-.47-1,6.5A22.78,22.78,0,0,0,72.37,48c7.85,0,13-3.88,13-9.88,0-3.3-2-5.82-6.29-7.89-2.61-1.32-4.22-2.22-4.22-3.57s1.36-2.5,4.31-2.5a12.8,12.8,0,0,1,5.58,1.11l.68.31,1-6.25Z" fill="#00579f"/><path d="M96.43,37.27c.61-1.67,3-8.1,3-8.1s.62-1.7,1-2.78l.52,2.5s1.42,6.93,1.73,8.38Zm9.24-18.7H99.88c-1.79,0-3.15.52-3.92,2.4L84.84,47.52H92.7l1.57-4.34h9.61c.22,1,.89,4.34.89,4.34h6.94l-6-28.95Z" fill="#00579f"/><path d="M45.6,18.57,38.27,38.31l-.8-4c-1.36-4.62-5.61-9.64-10.35-12.14l6.71,25.32h7.92L53.52,18.57Z" fill="#00579f"/><path d="M31.46,18.57h-12l-.13.59c9.4,2.4,15.62,8.19,18.18,15.15L34.85,21c-.43-1.84-1.76-2.37-3.39-2.43Z" fill="#faa61a"/></svg>