<?xml version="1.0" encoding="utf-8"?>
<!-- Generator: Adobe Illustrator 25.1.0, SVG Export Plug-In . SVG Version: 6.00 Build 0)  -->
<svg version="1.1" id="Ebene_1" xmlns="http://www.w3.org/2000/svg" xmlns:xlink="http://www.w3.org/1999/xlink" x="0px" y="0px"
	 viewBox="0 0 131 66" style="enable-background:new 0 0 131 66;" xml:space="preserve">
<style type="text/css">
	.st0{fill:#FFB3C7;stroke:#FFB3C7;stroke-miterlimit:10;}
	.st1{fill:#0A0B09;}
</style>
<path class="st0" d="M11.6,0.5h107.9c6.1,0,11.1,5,11.1,11.1v42.9c0,6.1-5,11.1-11.1,11.1H11.6c-6.1,0-11.1-5-11.1-11.1V11.6
	C0.5,5.5,5.5,0.5,11.6,0.5z"/>
<path class="st1" d="M112.8,38.4c-1.6,0-2.9,1.3-2.9,2.9c0,1.6,1.3,2.9,2.9,2.9s2.9-1.3,2.9-2.9c0,0,0,0,0,0
	C115.7,39.7,114.4,38.4,112.8,38.4C112.8,38.4,112.8,38.4,112.8,38.4z M103.4,36.2c0.1-2.3-1.7-4.2-3.9-4.3s-4.2,1.7-4.3,3.9
	c-0.1,2.3,1.7,4.2,3.9,4.3c0.1,0,0.1,0,0.2,0C101.5,40.2,103.3,38.5,103.4,36.2C103.4,36.3,103.4,36.2,103.4,36.2z M103.4,28.5h4.6
	v15.3h-4.6v-1c-1.3,0.9-2.9,1.4-4.5,1.4c-4.5,0-8.1-3.6-8.1-8.1c0-4.5,3.6-8.1,8.1-8.1c1.6,0,3.2,0.5,4.5,1.4L103.4,28.5L103.4,28.5
	z M67,30.5v-2h-4.7v15.3H67v-7.2c0-2.4,2.6-3.7,4.4-3.7h0.1v-4.5C69.8,28.5,68.1,29.2,67,30.5L67,30.5z M55.4,36.2
	c0.1-2.3-1.7-4.2-3.9-4.3c-2.3-0.1-4.2,1.7-4.3,3.9c-0.1,2.3,1.7,4.2,3.9,4.3c0.1,0,0.1,0,0.2,0C53.5,40.2,55.3,38.5,55.4,36.2
	C55.4,36.3,55.4,36.2,55.4,36.2L55.4,36.2z M55.4,28.5H60v15.3h-4.6v-1c-1.3,0.9-2.9,1.4-4.5,1.4c-4.5,0-8.1-3.6-8.1-8.1
	c0-4.5,3.6-8.1,8.1-8.1c1.6,0,3.2,0.5,4.5,1.4L55.4,28.5L55.4,28.5z M82.8,28.1c-1.8-0.1-3.6,0.7-4.7,2.1v-1.7h-4.5v15.3h4.6v-8.1
	c-0.1-1.8,1.2-3.3,3-3.5c0.2,0,0.3,0,0.5,0c2,0,3.2,1.2,3.2,3.4v8.1h4.5v-9.8C89.3,30.5,86.5,28.1,82.8,28.1L82.8,28.1z M36.3,43.9
	H41V21.7h-4.7V43.9z M15.4,43.9h5V21.7h-5V43.9z M33,21.7c0,4.7-1.8,9.2-5.2,12.6l7,9.6h-6.3L21,33.5l2-1.5
	c3.2-2.4,5.1-6.2,5.1-10.3L33,21.7z"/>
</svg>
