<?xml version="1.0" encoding="utf-8"?>
<!-- Generator: Adobe Illustrator 25.1.0, SVG Export Plug-In . SVG Version: 6.00 Build 0)  -->
<svg version="1.1" id="Ebene_1" xmlns="http://www.w3.org/2000/svg" xmlns:xlink="http://www.w3.org/1999/xlink" x="0px" y="0px"
	 viewBox="0 0 131 66" style="enable-background:new 0 0 131 66;" xml:space="preserve">
<style type="text/css">
	.st0{fill:#FFFFFF;stroke:#FFFFFF;stroke-miterlimit:10;}
	.st1{fill:#253B80;}
	.st2{fill:#179BD7;}
</style>
<path class="st0" d="M11.6,0.5h107.9c6.1,0,11.1,5,11.1,11.1v42.9c0,6.1-5,11.1-11.1,11.1H11.6c-6.1,0-11.1-5-11.1-11.1V11.6
	C0.5,5.5,5.5,0.5,11.6,0.5z"/>
<path class="st1" d="M24.1,18.5h-8.5c-0.6,0-1.1,0.4-1.2,1l-3.4,21.7c-0.1,0.4,0.2,0.7,0.6,0.8c0,0,0.1,0,0.1,0h4
	c0.6,0,1.1-0.4,1.2-1l0.9-5.8c0.1-0.6,0.6-1,1.2-1h2.7c5.6,0,8.8-2.7,9.6-8c0.4-2.3,0-4.2-1.1-5.5S27,18.5,24.1,18.5z M25.1,26.4
	c-0.5,3-2.8,3-5,3h-1.3l0.9-5.7c0.1-0.3,0.4-0.6,0.7-0.6H21c1.5,0,3,0,3.7,0.9C25.2,24.7,25.4,25.6,25.1,26.4L25.1,26.4z"/>
<path class="st1" d="M49.5,26.3h-4.1c-0.3,0-0.6,0.3-0.7,0.6l-0.2,1.1l-0.3-0.4c-0.9-1.3-2.8-1.7-4.8-1.7c-4.6,0.1-8.5,3.6-9.1,8.1
	c-0.4,2.2,0.1,4.5,1.5,6.2c1.3,1.4,3.2,2.2,5.1,2.1c2.1,0,4.1-0.8,5.6-2.3l-0.2,1.1c-0.1,0.4,0.2,0.7,0.6,0.8c0,0,0.1,0,0.1,0h3.7
	c0.6,0,1.1-0.4,1.2-1l2.2-13.9c0.1-0.4-0.2-0.7-0.6-0.8C49.5,26.3,49.5,26.3,49.5,26.3z M43.8,34.2c-0.3,2.3-2.3,3.9-4.6,3.9
	c-1.7,0.2-3.3-1.1-3.4-2.8c0-0.4,0-0.8,0.1-1.2c0.3-2.3,2.3-3.9,4.5-3.9c1-0.1,2,0.3,2.7,1.1C43.7,32.2,44,33.2,43.8,34.2z"/>
<path class="st1" d="M71,26.3h-4c-0.4,0-0.8,0.2-1,0.5l-5.6,8.3l-2.4-8c-0.2-0.5-0.6-0.8-1.1-0.8h-4c-0.4,0-0.7,0.3-0.7,0.7
	c0,0.1,0,0.2,0,0.2l4.5,13.2l-4.2,6c-0.2,0.3-0.1,0.8,0.2,1c0.1,0.1,0.2,0.1,0.3,0.1h4.1c0.4,0,0.8-0.2,1-0.5l13.5-19.6
	c0.2-0.3,0.1-0.8-0.2-1C71.3,26.4,71.2,26.3,71,26.3z"/>
<path class="st2" d="M84.5,18.5h-8.5c-0.6,0-1.1,0.4-1.2,1l-3.4,21.7c-0.1,0.4,0.2,0.7,0.6,0.8c0,0,0.1,0,0.1,0h4.3
	c0.4,0,0.8-0.3,0.8-0.7l1-6.2c0.1-0.6,0.6-1,1.2-1h2.7c5.6,0,8.8-2.7,9.6-8c0.4-2.3,0-4.2-1.1-5.5S87.4,18.5,84.5,18.5z M85.5,26.4
	c-0.5,3-2.8,3-5,3h-1.3l0.9-5.7c0.1-0.3,0.4-0.6,0.7-0.6h0.6c1.5,0,3,0,3.7,0.9C85.6,24.7,85.7,25.6,85.5,26.4L85.5,26.4z"/>
<path class="st2" d="M109.8,26.3h-4c-0.3,0-0.6,0.3-0.7,0.6l-0.2,1.1l-0.3-0.4c-0.9-1.3-2.8-1.7-4.8-1.7c-4.6,0.1-8.4,3.6-9,8.1
	c-0.4,2.2,0.1,4.5,1.5,6.2c1.3,1.4,3.2,2.2,5.1,2.1c2.1,0,4.1-0.8,5.5-2.3l-0.2,1.1c-0.1,0.4,0.2,0.7,0.6,0.8c0,0,0.1,0,0.1,0h3.7
	c0.6,0,1.1-0.4,1.2-1l2.2-13.9C110.6,26.8,110.3,26.4,109.8,26.3C109.9,26.3,109.9,26.3,109.8,26.3z M104.2,34.2
	c-0.3,2.3-2.3,3.9-4.6,3.9c-1.7,0.2-3.3-1.1-3.5-2.8c0-0.4,0-0.8,0.1-1.1c0.3-2.3,2.3-3.9,4.6-3.9c1-0.1,2,0.3,2.7,1.1
	C104.1,32.2,104.4,33.2,104.2,34.2z"/>
<path class="st2" d="M114.6,19.1l-3.5,22.1c-0.1,0.4,0.2,0.7,0.6,0.8c0,0,0.1,0,0.1,0h3.5c0.6,0,1.1-0.4,1.2-1l3.4-21.7
	c0.1-0.4-0.2-0.8-0.6-0.8c0,0-0.1,0-0.1,0h-3.9C114.9,18.5,114.6,18.8,114.6,19.1z"/>
</svg>
