<?xml version="1.0" encoding="utf-8"?>
<!-- Generator: Adobe Illustrator 25.1.0, SVG Export Plug-In . SVG Version: 6.00 Build 0)  -->
<svg version="1.1" id="Ebene_1" xmlns="http://www.w3.org/2000/svg" xmlns:xlink="http://www.w3.org/1999/xlink" x="0px" y="0px"
	 viewBox="0 0 131 66" style="enable-background:new 0 0 131 66;" xml:space="preserve">
<style type="text/css">
	.st0{fill:#FFFFFF;stroke:#FFFFFF;stroke-miterlimit:10;}
	.st1{fill:#00579F;}
	.st2{fill:#FAA61A;}
</style>
<path class="st0" d="M11.6,0.5h107.9c6.1,0,11.1,5,11.1,11.1v42.9c0,6.1-5,11.1-11.1,11.1H11.6c-6.1,0-11.1-5-11.1-11.1V11.6
	C0.5,5.5,5.5,0.5,11.6,0.5z"/>
<polygon class="st1" points="59.3,47.5 51.8,47.5 56.5,18.6 64,18.6 "/>
<path class="st1" d="M86.5,19.3c-2.1-0.8-4.4-1.2-6.7-1.2c-7.4,0-12.6,3.9-12.6,9.6c-0.1,4.2,3.7,6.5,6.6,7.9s3.9,2.3,3.9,3.6
	c0,1.9-2.3,2.8-4.5,2.8c-2.4,0.1-4.8-0.5-7-1.5l-1-0.5l-1,6.5c2.6,1,5.5,1.6,8.3,1.6c7.8,0,13-3.9,13-9.9c0-3.3-2-5.8-6.3-7.9
	c-2.6-1.3-4.2-2.2-4.2-3.6s1.4-2.5,4.3-2.5c1.9-0.1,3.8,0.3,5.6,1.1l0.7,0.3L86.5,19.3L86.5,19.3z"/>
<path class="st1" d="M96.4,37.3c0.6-1.7,3-8.1,3-8.1s0.6-1.7,1-2.8l0.5,2.5c0,0,1.4,6.9,1.7,8.4H96.4z M105.7,18.6h-5.8
	c-1.8,0-3.2,0.5-3.9,2.4L84.8,47.5h7.9l1.6-4.3h9.6c0.2,1,0.9,4.3,0.9,4.3h6.9L105.7,18.6L105.7,18.6z"/>
<path class="st1" d="M45.6,18.6l-7.3,19.7l-0.8-4c-1.4-4.6-5.6-9.6-10.4-12.1l6.7,25.3h7.9l11.8-28.9H45.6z"/>
<path class="st2" d="M31.5,18.6h-12l-0.1,0.6c9.4,2.4,15.6,8.2,18.2,15.1L34.8,21C34.4,19.2,33.1,18.6,31.5,18.6z"/>
</svg>
