<svg xmlns="http://www.w3.org/2000/svg" width="131" height="66" viewBox="0 0 131 66"><rect x="0.5" y="0.5" width="130" height="65" rx="11.06" fill="#fff" stroke="#d2d2d2" stroke-miterlimit="10"/><path d="M98.86,46.58v-.71h.3v-.14h-.72v.14h.28v.71Zm1.4,0v-.85H100l-.25.61-.26-.61h-.22v.85h.16v-.65l.24.56h.16l.24-.56v.65Z" fill="#f79e1b"/><rect x="54.96" y="15.77" width="21.09" height="34.45" fill="#ff5f00"/><path d="M57.13,33A21.88,21.88,0,0,1,65.5,15.78a21.91,21.91,0,1,0,0,34.45A21.85,21.85,0,0,1,57.13,33Z" fill="#eb001b"/><path d="M101,33A21.9,21.9,0,0,1,65.5,50.22a21.91,21.91,0,0,0,3.69-30.76,22.21,22.21,0,0,0-3.69-3.69A21.92,21.92,0,0,1,101,33Z" fill="#f79e1b"/></svg>