<?xml version="1.0" encoding="utf-8"?>
<!-- Generator: Adobe Illustrator 25.1.0, SVG Export Plug-In . SVG Version: 6.00 Build 0)  -->
<svg version="1.1" id="Ebene_1" xmlns="http://www.w3.org/2000/svg" xmlns:xlink="http://www.w3.org/1999/xlink" x="0px" y="0px"
	 viewBox="0 0 131 66" style="enable-background:new 0 0 131 66;" xml:space="preserve">
<style type="text/css">
	.st0{fill:#FFFFFF;stroke:#FFFFFF;stroke-miterlimit:10;}
</style>
<path class="st0" d="M11.6,0.5h107.9c6.1,0,11.1,5,11.1,11.1v42.9c0,6.1-5,11.1-11.1,11.1H11.6c-6.1,0-11.1-5-11.1-11.1V11.6
	C0.5,5.5,5.5,0.5,11.6,0.5z"/>
<g>
	<g>
		<g>
			<path d="M37.2,21.3c1.1-1.3,1.8-3.1,1.6-5c-1.6,0.1-3.5,1-4.6,2.4c-1,1.1-1.9,3-1.6,4.8C34.3,23.7,36,22.6,37.2,21.3"/>
			<path d="M38.7,23.8c-2.6-0.2-4.7,1.5-6,1.5c-1.2,0-3.1-1.4-5.1-1.3c-2.6,0-5.1,1.5-6.4,3.9c-2.8,4.7-0.7,11.8,1.9,15.6
				c1.3,1.9,2.9,4,4.9,3.9c1.9-0.1,2.7-1.3,5.1-1.3c2.4,0,3.1,1.3,5.1,1.2c2.1,0,3.5-1.9,4.8-3.8c1.5-2.2,2.1-4.3,2.1-4.4
				c0,0-4.1-1.6-4.2-6.3c0-3.9,3.2-5.8,3.4-5.9C42.6,24.2,39.7,23.9,38.7,23.8"/>
		</g>
		<g>
			<path d="M61,18.5c5.6,0,9.4,3.8,9.4,9.4c0,5.6-4,9.5-9.6,9.5h-6.2v9.8h-4.5V18.5H61z M54.7,33.7h5.1c3.9,0,6.1-2.1,6.1-5.7
				c0-3.6-2.2-5.7-6.1-5.7h-5.1V33.7z"/>
			<path d="M71.6,41.3c0-3.7,2.8-5.9,7.8-6.2l5.7-0.3v-1.6c0-2.3-1.6-3.7-4.2-3.7c-2.5,0-4,1.2-4.4,3.1h-4.1
				c0.2-3.8,3.5-6.6,8.6-6.6c5.1,0,8.3,2.7,8.3,6.9v14.4h-4.1v-3.4h-0.1c-1.2,2.3-3.9,3.8-6.6,3.8C74.5,47.6,71.6,45,71.6,41.3z
				 M85.1,39.4v-1.6L80,38c-2.6,0.2-4,1.3-4,3.1c0,1.8,1.5,3,3.8,3C82.8,44.2,85.1,42.1,85.1,39.4z"/>
			<path d="M93.3,54.9v-3.5c0.3,0.1,1,0.1,1.4,0.1c2,0,3.1-0.8,3.7-3c0,0,0.4-1.3,0.4-1.3l-7.6-20.9h4.6l5.3,17h0.1l5.3-17h4.5
				l-7.8,22c-1.8,5.1-3.9,6.7-8.2,6.7C94.7,55,93.6,54.9,93.3,54.9z"/>
		</g>
	</g>
</g>
</svg>
