<svg xmlns="http://www.w3.org/2000/svg" width="68.12" height="83.97" viewBox="0 0 68.12 83.97"><path d="M30.05,84a30.08,30.08,0,0,1-30-30c0-9.84,4.89-21.74,14.55-35.37A155.59,155.59,0,0,1,29,1.07L30,0l1.07,1.07A151.58,151.58,0,0,1,44.53,17a1.5,1.5,0,1,1-2.42,1.77A153.54,153.54,0,0,0,30.05,4.29c-5.12,5.48-27,30-27,49.63A27,27,0,0,0,52.47,69,1.5,1.5,0,0,1,55,70.72,30,30,0,0,1,30.05,84Z"/><path d="M39.72,48.84c0,7.07-4,12.36-10.71,12.36-3.84,0-6.2-1.76-7.37-4h-.57V69a.67.67,0,0,1-.72.71H16.63a.67.67,0,0,1-.72-.71V37.7a.67.67,0,0,1,.72-.71h3.86a.67.67,0,0,1,.72.71v2.67h.43c1.17-2.12,3.53-3.86,7.37-3.86C35.69,36.51,39.72,41.78,39.72,48.84Zm-5.13,0c0-4.55-2.67-7.44-6.82-7.44S21,44.29,21,48.84s2.64,7.47,6.82,7.47S34.59,53.4,34.59,48.84Z"/><path d="M67.41,28.63a.67.67,0,0,1,.71.72V59.89a.67.67,0,0,1-.71.72H63.35a.67.67,0,0,1-.71-.72V47.29H51.09v12.6a.68.68,0,0,1-.72.72h-4a.68.68,0,0,1-.72-.72V29.35a.68.68,0,0,1,.72-.72h4a.68.68,0,0,1,.72.72v13H62.64v-13a.67.67,0,0,1,.71-.72Z"/></svg>