<svg xmlns="http://www.w3.org/2000/svg" width="119.59" height="101.98" viewBox="0 0 119.59 101.98"><path d="M118.09,61.41H1.87a1.5,1.5,0,1,1,0-3H118.09a1.5,1.5,0,0,1,0,3Z"/><path d="M24.37,102H1.87a1.5,1.5,0,0,1,0-3h22.5a1.5,1.5,0,1,1,0,3Z"/><path d="M71.85,102H48.11a1.5,1.5,0,0,1,0-3H71.85a1.5,1.5,0,0,1,0,3Z"/><path d="M118.09,102H95.59a1.5,1.5,0,0,1,0-3h22.5a1.5,1.5,0,0,1,0,3Z"/><path d="M1.5,91.87a1.5,1.5,0,0,1-.34-3A8.15,8.15,0,0,0,6,84.8l6.15-10.54c2.13-3.66,5.26-5.74,8.6-5.74h.16c3.48.07,6.68,2.37,8.77,6.3l4.17,7.84c1.62,3,4,4.78,6.39,4.71s4.88-2,6.45-5.27L49,77.24c2.09-4.38,5.43-6.92,9.16-7h.11c3.63,0,6.91,2.37,9,6.53l3,5.91c1.6,3.12,3.92,4.9,6.38,4.9s4.78-1.78,6.38-4.9l3.31-6.46c2.12-4.15,5.42-6.53,9-6.53h0c3.63,0,6.92,2.38,9.05,6.53l3.48,6.8a8.84,8.84,0,0,0,4.82,4.66,5.29,5.29,0,0,0,4.11-.42,1.5,1.5,0,1,1,1.41,2.64,8.19,8.19,0,0,1-6.41.64,11.74,11.74,0,0,1-6.6-6.15l-3.48-6.8c-1.6-3.12-3.92-4.9-6.38-4.9s-4.78,1.78-6.37,4.9l-3.31,6.46c-2.13,4.15-5.43,6.53-9,6.53s-6.92-2.38-9-6.53l-3-5.92c-1.59-3.11-3.91-4.89-6.37-4.89h-.07c-2.55,0-4.91,2-6.49,5.26L49.4,83.39c-2.07,4.35-5.38,6.89-9.09,7s-6.93-2.22-9.1-6.3L27,76.23c-1.56-3-3.82-4.66-6.18-4.71S16.35,73,14.75,75.77L8.6,86.31a11,11,0,0,1-6.76,5.52A1.32,1.32,0,0,1,1.5,91.87Z"/><path d="M39.25,46.23,27.68,35.36l2.91-4.52L26.08,15.93l13.27,5.86,5,8.47L50.5,33.9Zm-7.7-11.35L39.09,42l6.7-7.35-3.66-2.16-4.88-8.31-6.41-2.83,3,10Z"/><path d="M61.6,25.49l-1.52-1c-1.14-.73-6.87-4.49-7.86-7.45-.61-1.29-7.28-5.08-13.11-7.8L36.2,7.91l2.91-1.36C42.21,5.1,52.47.36,54.27.06s10.32.66,12,.86l.87.1,2.93,7.1L63.47,11l3.43,1.27ZM43.26,7.94c4.6,2.28,11,5.83,11.81,8.18.38,1.15,2.9,3.27,5.11,4.85L63,14,55.4,11.21,66.17,6.54,65,3.8A85.76,85.76,0,0,0,54.76,3C53.88,3.19,48.65,5.47,43.26,7.94Z"/><path d="M88.47,39s-1.76-3.62-5.21-4.08a46.09,46.09,0,0,1-9.63-2.7l-1.78-.73L73,29.89s8.11-11,9-12.17,3.66-2.06,8.47-2.89l.16,0,15.84.67-2.55,6.8-.16.2c-5.73,7-12,15-12.47,16.18a1.15,1.15,0,0,0,0-.82ZM76.58,30.07a38.55,38.55,0,0,0,7.08,1.83,9.57,9.57,0,0,1,6.09,3.58c1.6-2.36,4.89-6.63,11.5-14.72l.92-2.46L90.8,17.81a26.46,26.46,0,0,0-6.48,1.78C83.5,20.68,78.81,27.05,76.58,30.07Z"/></svg>