<svg xmlns="http://www.w3.org/2000/svg" width="120" height="70" viewBox="0 0 120 70"><path d="M26.89,32.49,20.53,32l-2.64-6.15a.42.42,0,0,0-.78,0L14.47,32l-6.36.48a.42.42,0,0,0-.23.76l5.06,4-1.65,6.58a.42.42,0,0,0,.64.46l5.57-3.57,5.57,3.57a.42.42,0,0,0,.64-.46l-1.65-6.58,5.06-4A.42.42,0,0,0,26.89,32.49Zm21,0L41.53,32l-2.64-6.15a.42.42,0,0,0-.78,0L35.47,32l-6.36.48a.42.42,0,0,0-.23.76l5.06,4-1.65,6.58a.42.42,0,0,0,.64.46l5.57-3.57,5.57,3.57a.42.42,0,0,0,.64-.46l-1.65-6.58,5.06-4A.42.42,0,0,0,47.89,32.49Zm22,0L63.53,32l-2.64-6.15a.42.42,0,0,0-.78,0L57.47,32l-6.36.48a.42.42,0,0,0-.23.76l5.06,4-1.65,6.58a.42.42,0,0,0,.64.46l5.57-3.57,5.57,3.57a.42.42,0,0,0,.64-.46l-1.65-6.58,5.06-4A.42.42,0,0,0,69.89,32.49Zm21,0L84.53,32l-2.64-6.15a.42.42,0,0,0-.78,0L78.47,32l-6.36.48a.42.42,0,0,0-.23.76l5.06,4-1.65,6.58a.42.42,0,0,0,.64.46l5.57-3.57,5.57,3.57a.42.42,0,0,0,.64-.46l-1.65-6.58,5.06-4A.42.42,0,0,0,90.89,32.49Zm21,0L105.53,32l-2.64-6.15a.42.42,0,0,0-.78,0L99.47,32l-6.36.48a.42.42,0,0,0-.23.76l5.06,4-1.65,6.58a.42.42,0,0,0,.64.46l5.57-3.57,5.57,3.57a.42.42,0,0,0,.64-.46l-1.65-6.58,5.06-4A.42.42,0,0,0,111.89,32.49Z" fill-rule="evenodd"/></svg>