<svg xmlns="http://www.w3.org/2000/svg" width="76.74" height="121.81" viewBox="0 0 76.74 121.81"><path d="M30.57,121.81a1.31,1.31,0,0,1-1.31-1.3V45.92a1.31,1.31,0,1,1,2.62,0v74.59A1.31,1.31,0,0,1,30.57,121.81Z"/><path d="M30.8,70.86a1.31,1.31,0,0,1-.88-2.28L44.38,55.36a1.31,1.31,0,0,1,1.76,1.93L31.69,70.51A1.34,1.34,0,0,1,30.8,70.86Z"/><path d="M30.44,85.71a1.32,1.32,0,0,1-.89-.34L15.1,72.15a1.31,1.31,0,0,1,1.76-1.93L31.32,83.44a1.31,1.31,0,0,1-.88,2.27Z"/><path d="M30.44,56.94a1.32,1.32,0,0,1-.89-.34L15.1,43.38a1.31,1.31,0,0,1,1.76-1.93L31.32,54.67a1.31,1.31,0,0,1-.88,2.27Z"/><path d="M30.14,100.49C13.52,100.49,0,88.37,0,73.47V44.58C0,34.37,6.64,24.84,16.91,20.31A1.31,1.31,0,1,1,18,22.7C8.64,26.82,2.61,35.4,2.61,44.58V73.47C2.61,86.93,15,97.88,30.14,97.88S57.66,86.93,57.66,73.47V59.64a1.31,1.31,0,1,1,2.61,0V73.47C60.27,88.37,46.75,100.49,30.14,100.49Z"/><path d="M65.87,57.46h0a1.69,1.69,0,0,1-1.54-1l-2-4.42a7.41,7.41,0,0,0-2.87-2.85l-3.63-2A1.67,1.67,0,0,1,55,45.7a1.69,1.69,0,0,1,.87-1.48l3.52-1.93a1.31,1.31,0,1,1,1.26,2.29l-2,1.12,2.16,1.19a10.07,10.07,0,0,1,3.92,3.9l.07.16,1.14,2.56,1.27-2.82a9.94,9.94,0,0,1,3.95-3.9l2-1.11-2.36-1.32a10.08,10.08,0,0,1-3.89-4l-.08-.17-1-2.25-1.06,2.4a1.31,1.31,0,0,1-2.4-1.06L64.31,35a1.7,1.7,0,0,1,1.55-1h0a1.69,1.69,0,0,1,1.54,1l1.8,4.19a7.43,7.43,0,0,0,2.86,2.89l3.81,2.14a1.69,1.69,0,0,1,.86,1.49,1.66,1.66,0,0,1-.88,1.47l-3.52,1.91a7.2,7.2,0,0,0-2.88,2.83l-2,4.55A1.71,1.71,0,0,1,65.87,57.46Z"/><path d="M46.93,43h0a2.2,2.2,0,0,1-2-1.33l-3.7-8.35A15.6,15.6,0,0,0,35,27.17l-6.81-3.75a2.26,2.26,0,0,1-1.16-2,2.24,2.24,0,0,1,1.16-2l6.61-3.64a1.31,1.31,0,0,1,1.26,2.29l-6,3.31,6.22,3.42A18.19,18.19,0,0,1,43.47,32a1.74,1.74,0,0,1,.1.19l3.36,7.59,3.57-7.88a2.12,2.12,0,0,1,.11-.21,18.11,18.11,0,0,1,7.15-7l6-3.25-6.59-3.71A18.34,18.34,0,0,1,50,10.48l-.1-.2-3-7.1-3.24,7.34a1.31,1.31,0,1,1-2.39-1l3.59-8.14a2.24,2.24,0,0,1,2-1.33h0a2.24,2.24,0,0,1,2,1.36l3.38,7.88a15.66,15.66,0,0,0,6.11,6.21l7.19,4a2.24,2.24,0,0,1,0,3.92L59,27a15.48,15.48,0,0,0-6.13,6L49,41.66A2.19,2.19,0,0,1,46.93,43Z"/></svg>