<svg xmlns="http://www.w3.org/2000/svg" width="93.54" height="66.96" viewBox="0 0 93.54 66.96"><path d="M48.71,67h-.13a1.49,1.49,0,0,1-1.36-1.62c2.89-33.56-31.28-50.88-31.63-51.06a1.5,1.5,0,0,1,1.33-2.69c.36.18,36.35,18.38,33.28,54A1.49,1.49,0,0,1,48.71,67Z"/><path d="M28.94,52a21.53,21.53,0,0,1-11.61-3.23C0,37.9,0,3.07,0,1.59V.15L1.45.09C23.46-.72,38.92,4,47.4,14,56.55,24.85,54,37.76,53.88,38.3a1.5,1.5,0,1,1-2.94-.61c0-.17,2.33-12.1-5.86-21.77C37.4,6.85,23.26,2.52,3,3c.15,6.74,1.66,34.25,15.91,43.15,6.62,4.15,15.27,3.63,25.72-1.52A1.5,1.5,0,0,1,46,47.37Q36.64,52,28.94,52Z"/><path d="M52.75,33.45a1.54,1.54,0,0,1-.74-.19,1.51,1.51,0,0,1-.57-2c8.24-14.66,19.35-15.57,19.82-15.6A1.49,1.49,0,0,1,72.86,17a1.51,1.51,0,0,1-1.4,1.6c-.4,0-10,.92-17.4,14.08A1.52,1.52,0,0,1,52.75,33.45Z"/><path d="M60.66,37.43a1.5,1.5,0,0,1-.09-3c19.1-1.24,27.14-19.2,29.12-24.54-9-3.39-16.67-3.52-23-.36-9.95,5-13.07,16.68-13.1,16.8a1.5,1.5,0,1,1-2.9-.75c.13-.53,3.46-13.09,14.63-18.72,7.42-3.73,16.43-3.47,26.79.77l1.4.57L93,9.54C92,12.47,83.82,35.93,60.76,37.43Z"/></svg>