<svg xmlns="http://www.w3.org/2000/svg" width="70" height="70" viewBox="0 0 70 70"><path d="M56.79,25.81s-.44-3.18-1.77-4.57a6.19,6.19,0,0,0-4.45-1.94C44.34,18.83,35,18.83,35,18.83h0s-9.34,0-15.56.47A6.19,6.19,0,0,0,15,21.24c-1.33,1.4-1.77,4.57-1.77,4.57a72.59,72.59,0,0,0-.44,7.44v3.48a72.66,72.66,0,0,0,.44,7.45s.44,3.17,1.77,4.56c1.69,1.83,3.92,1.78,4.9,2,3.56.35,15.12.46,15.12.46s9.34,0,15.57-.48A6.26,6.26,0,0,0,55,48.74c1.33-1.39,1.77-4.56,1.77-4.56a72.66,72.66,0,0,0,.44-7.45V33.25A72.59,72.59,0,0,0,56.79,25.81ZM30.41,41V28.05L35.82,31l6.6,3.56Z" fill-rule="evenodd"/></svg>