<svg xmlns="http://www.w3.org/2000/svg" width="70" height="70" viewBox="0 0 70 70"><path d="M43.4,11.7h-2v-3a4.15,4.15,0,0,0-4.15-4.16H33.55a4.16,4.16,0,0,0-4.16,4.16v3H26.6a7.18,7.18,0,0,0-7.18,7.17V58.26a7.18,7.18,0,0,0,7.18,7.17H43.4a7.18,7.18,0,0,0,7.18-7.17V18.87A7.18,7.18,0,0,0,43.4,11.7Zm4.81,46.56a4.81,4.81,0,0,1-4.81,4.8H26.6a4.81,4.81,0,0,1-4.81-4.8V18.87a4.81,4.81,0,0,1,4.81-4.8h5.17V8.73a1.79,1.79,0,0,1,1.78-1.79h3.69A1.79,1.79,0,0,1,39,8.73v5.34H43.4a4.81,4.81,0,0,1,4.81,4.8Z"/><path d="M44.9,21H25.41a1.19,1.19,0,0,0,0,2.37H44.9a1.19,1.19,0,1,0,0-2.37Z"/><path d="M44.9,29.45H25.41a1.19,1.19,0,0,0,0,2.38H44.9a1.19,1.19,0,1,0,0-2.38Z"/><path d="M44.9,37.91H25.41a1.19,1.19,0,0,0,0,2.37H44.9a1.19,1.19,0,1,0,0-2.37Z"/><path d="M44.9,46.36H25.41a1.19,1.19,0,0,0,0,2.38H44.9a1.19,1.19,0,1,0,0-2.38Z"/><path d="M44.9,54.82H25.41a1.19,1.19,0,0,0,0,2.37H44.9a1.19,1.19,0,1,0,0-2.37Z"/></svg>