<svg xmlns="http://www.w3.org/2000/svg" width="70" height="70" viewBox="0 0 70 70"><path d="M43.57,12.68H26.43A13.76,13.76,0,0,0,12.68,26.44V43.57A13.76,13.76,0,0,0,26.43,57.32H43.57A13.76,13.76,0,0,0,57.32,43.57V26.44A13.76,13.76,0,0,0,43.57,12.68ZM53,41.92A11.1,11.1,0,0,1,41.92,53H28.08A11.11,11.11,0,0,1,17,41.92V28.08A11.11,11.11,0,0,1,28.08,17H41.92A11.1,11.1,0,0,1,53,28.08Zm-18-18a11.19,11.19,0,1,0,11.2,11.19A11.19,11.19,0,0,0,35,23.92Zm0,17.92a6.73,6.73,0,1,1,6.74-6.73A6.73,6.73,0,0,1,35,41.84ZM46.54,20.15a3,3,0,1,0,3,3A3,3,0,0,0,46.54,20.15Z" fill-rule="evenodd"/></svg>