<svg xmlns="http://www.w3.org/2000/svg" width="131" height="66" viewBox="0 0 131 66"><rect x="0.5" y="0.5" width="130" height="65" rx="11.06" fill="#26a6d1" stroke="#d2d2d2" stroke-miterlimit="10"/><path d="M26.8,20.5l-11.29,25H29l1.68-4h3.82l1.68,4H51.06v-3l1.33,3h7.69l1.32-3.1v3.1H92.32l3.76-3.88,3.52,3.88,15.89,0L104.17,33.05,115.49,20.5H99.85l-3.66,3.81L92.78,20.5H59.14l-2.88,6.44-3-6.44H39.82v2.93l-1.5-2.93Zm2.61,3.55H36L43.48,41V24.05h7.21l5.78,12.13L61.8,24.05H69V42H64.61l0-14L58.21,42H54.3l-6.4-14V42h-9l-1.7-4H28l-1.7,4H21.5Zm43.56,0H90.72l5.44,5.86,5.6-5.86h5.43l-8.25,9,8.25,8.9h-5.68L96.08,36,90.45,42H73V24.05Zm-40.36,3-3,7.15h6.06Zm44.74.68V31H87v3.64H77.35v3.57H88.22l5-5.26-4.84-5.23H77.35Z" fill="#fff"/></svg>