<svg xmlns="http://www.w3.org/2000/svg" width="99.97" height="25" viewBox="0 0 99.97 25"><path d="M11.28,0,0,25H13.51l1.67-4H19l1.67,4H35.55v-3l1.33,3h7.69l1.32-3.1V25H76.81l3.76-3.88L84.09,25,100,25,88.65,12.55,100,0H84.34L80.68,3.81,77.27,0H43.63L40.74,6.44,37.79,0H24.31V2.93L22.81,0ZM13.9,3.55h6.58L28,20.48V3.55h7.22L41,15.68,46.28,3.55h7.18V21.46H49.09l0-14-6.37,14h-3.9l-6.41-14v14h-9l-1.7-4H12.5l-1.7,4H6Zm43.55,0H75.21l5.43,5.86,5.61-5.86h5.43l-8.25,9,8.25,8.9H86l-5.43-5.93-5.63,5.93H57.45V3.55Zm-40.35,3-3,7.15h6.06Zm44.74.68v3.27h9.69v3.64H61.84v3.57H72.7l5-5.26L72.92,7.25H61.84Z" fill="#fff"/></svg>