<svg xmlns="http://www.w3.org/2000/svg" width="92.41" height="29.91" viewBox="0 0 92.41 29.91"><polygon points="40.05 29.48 32.56 29.48 37.24 0.53 44.73 0.53 40.05 29.48" fill="#00579f"/><path d="M67.18,1.23A18.55,18.55,0,0,0,60.47,0c-7.39,0-12.6,3.94-12.63,9.58-.06,4.16,3.72,6.47,6.56,7.85s3.88,2.34,3.88,3.61c0,1.94-2.34,2.83-4.5,2.83a14.86,14.86,0,0,1-7-1.54l-1-.46-1,6.5a22.73,22.73,0,0,0,8.35,1.54c7.85,0,13-3.88,13-9.89,0-3.3-2-5.82-6.28-7.88C57.2,10.81,55.6,9.92,55.6,8.56S57,6.07,59.91,6.07a12.72,12.72,0,0,1,5.58,1.11l.67.3,1-6.25Z" fill="#00579f"/><path d="M77.13,19.22c.62-1.66,3-8.1,3-8.1s.62-1.69,1-2.77l.52,2.49s1.42,6.93,1.72,8.38ZM86.37.52H80.58a3.7,3.7,0,0,0-3.91,2.41L65.55,29.48H73.4L75,25.13h9.61l.89,4.35h6.93l-6-29Z" fill="#00579f"/><path d="M26.31.52,19,20.27l-.81-4c-1.35-4.62-5.6-9.64-10.35-12.13l6.72,25.32h7.92L34.22.52Z" fill="#00579f"/><path d="M12.17.52H.12L0,1.11C9.4,3.51,15.62,9.3,18.17,16.26L15.56,3C15.12,1.11,13.8.59,12.17.52Z" fill="#faa61a"/></svg>