<svg xmlns="http://www.w3.org/2000/svg" width="131" height="66" viewBox="0 0 131 66"><rect x="0.5" y="0.5" width="130" height="65" rx="11.06" fill="#fff" stroke="#d2d2d2" stroke-miterlimit="10"/><path d="M24.14,18.5H15.68a1.17,1.17,0,0,0-1.16,1L11.09,41.2a.71.71,0,0,0,.7.81h4A1.18,1.18,0,0,0,17,41l.92-5.85a1.17,1.17,0,0,1,1.16-1h2.68c5.58,0,8.79-2.7,9.63-8,.38-2.34,0-4.18-1.07-5.47S27,18.5,24.14,18.5Zm1,7.93c-.46,3-2.78,3-5,3H18.82l.89-5.68a.71.71,0,0,1,.7-.59H21c1.53,0,3,0,3.72.87A2.83,2.83,0,0,1,25.12,26.43Z" fill="#253b80"/><path d="M49.45,26.33H45.39a.7.7,0,0,0-.69.6l-.18,1.13-.29-.41c-.87-1.27-2.83-1.7-4.78-1.7A9.31,9.31,0,0,0,30.4,34.1a7.63,7.63,0,0,0,1.51,6.23A6.34,6.34,0,0,0,37,42.39a7.75,7.75,0,0,0,5.61-2.32l-.18,1.13a.7.7,0,0,0,.7.81h3.65A1.17,1.17,0,0,0,48,41l2.19-13.87A.7.7,0,0,0,49.45,26.33ZM43.8,34.22a4.52,4.52,0,0,1-4.58,3.87,3.13,3.13,0,0,1-3.35-3.94,4.53,4.53,0,0,1,4.54-3.9,3.41,3.41,0,0,1,2.7,1.1A3.53,3.53,0,0,1,43.8,34.22Z" fill="#253b80"/><path d="M71,26.33H67a1.16,1.16,0,0,0-1,.52l-5.62,8.27L58,27.17a1.18,1.18,0,0,0-1.13-.84h-4a.7.7,0,0,0-.67.93l4.48,13.17-4.21,6A.7.7,0,0,0,53,47.5H57.1a1.19,1.19,0,0,0,1-.5L71.62,27.44A.71.71,0,0,0,71,26.33Z" fill="#253b80"/><path d="M84.52,18.5H76.06a1.17,1.17,0,0,0-1.16,1L71.47,41.2a.7.7,0,0,0,.7.81h4.34a.81.81,0,0,0,.81-.69l1-6.15a1.16,1.16,0,0,1,1.16-1h2.68c5.57,0,8.79-2.7,9.63-8,.38-2.34,0-4.18-1.08-5.47S87.36,18.5,84.52,18.5Zm1,7.93c-.46,3-2.78,3-5,3H79.2l.89-5.68a.71.71,0,0,1,.7-.59h.58c1.53,0,3,0,3.72.87A2.83,2.83,0,0,1,85.5,26.43Z" fill="#179bd7"/><path d="M109.82,26.33h-4a.7.7,0,0,0-.69.6l-.18,1.13-.29-.41c-.87-1.27-2.83-1.7-4.78-1.7a9.31,9.31,0,0,0-9,8.15,7.63,7.63,0,0,0,1.51,6.23,6.34,6.34,0,0,0,5.1,2.06A7.75,7.75,0,0,0,103,40.07l-.18,1.13a.7.7,0,0,0,.7.81h3.65a1.17,1.17,0,0,0,1.16-1l2.19-13.87A.71.71,0,0,0,109.82,26.33Zm-5.65,7.89a4.51,4.51,0,0,1-4.57,3.87,3.14,3.14,0,0,1-3.36-3.94,4.54,4.54,0,0,1,4.55-3.9,3.42,3.42,0,0,1,2.7,1.1A3.49,3.49,0,0,1,104.17,34.22Z" fill="#179bd7"/><path d="M114.6,19.1l-3.47,22.1a.7.7,0,0,0,.69.81h3.5a1.17,1.17,0,0,0,1.16-1l3.43-21.7a.72.72,0,0,0-.7-.82H115.3A.71.71,0,0,0,114.6,19.1Z" fill="#179bd7"/></svg>