<svg xmlns="http://www.w3.org/2000/svg" width="131" height="66" viewBox="0 0 131 66"><rect x="0.5" y="0.5" width="130" height="65" rx="11.06" fill="#eb7094" stroke="#d2d2d2" stroke-miterlimit="10"/><path d="M21.08,43H17.24l-3.08-5.88c-2.35.84-2.87,1.65-2.87,3.59V43H7.8V26h6.47c3.8,0,6,1.93,6,5.25a4.81,4.81,0,0,1-2.94,4.62Zm-9.79-8a9.38,9.38,0,0,1,2.51-1.16l.72-.23c1.61-.54,2.31-1.24,2.31-2.39s-.93-2-2.63-2H11.29Zm22.05,2c0,.28,0,.55,0,.82a33.09,33.09,0,0,0-8.23,1,3.05,3.05,0,0,0,2.78,1.53A4.47,4.47,0,0,0,31,39l1.79,2.26a6.62,6.62,0,0,1-4.84,2,6.12,6.12,0,0,1-6.37-5.87c0-.11,0-.23,0-.35a6,6,0,0,1,5.89-6.14h.24a5.63,5.63,0,0,1,5.65,5.61c0,.15,0,.31,0,.46Zm-5.81-3.12a2.78,2.78,0,0,0-2.79,2.55A22.28,22.28,0,0,1,30,35.61a2.41,2.41,0,0,0-2.47-1.74Zm13,9.39A5.82,5.82,0,0,0,46,40.18l-2.92-1.5a2.94,2.94,0,0,1-2.6,1.43,3,3,0,1,1,2.6-4.62L46,34a5.78,5.78,0,0,0-5.46-3.1,6.18,6.18,0,0,0-.67,12.35h.72ZM54.38,31a4.53,4.53,0,0,0-3.46,1.38V26h-3.3V43h3.3V36.8a2.69,2.69,0,0,1,5.38,0h0V43h3.28V36.19A4.93,4.93,0,0,0,55,31h-.57Zm14.48,0a4.52,4.52,0,0,0-3.58,1.52V31.26H62.07V43h3.28V36.8a2.69,2.69,0,1,1,5.37,0h0V43H74V36.19A4.9,4.9,0,0,0,69.47,31h-.61Zm15.7.27v6.32a2.55,2.55,0,1,1-5.09,0V31.24H76.19V38.1a4.84,4.84,0,0,0,4.56,5.11h.49a4.25,4.25,0,0,0,3.41-1.43V43h3.24V31.24ZM97.37,31a4.53,4.53,0,0,0-3.58,1.52V31.26H90.58V43h3.28V36.8a2.69,2.69,0,0,1,5.38,0h0V43h3.3V36.19A4.93,4.93,0,0,0,98,31h-.58Zm20.08-.84a6.79,6.79,0,0,1-1.8,4.64,9.69,9.69,0,0,1,.63,3.69c0,4-1.79,9-7.67,9a9.88,9.88,0,0,1-2.17-.23V44.07a7.18,7.18,0,0,0,2.06.25,3.84,3.84,0,0,0,4.25-2.74,4.2,4.2,0,0,1-2.92,1A5.65,5.65,0,0,1,104,37.07v-.2A5.93,5.93,0,0,1,110,31h.18a5.77,5.77,0,0,1,3.59,1.11,3.67,3.67,0,0,0,.48-2Zm-7.33,9.49a2.81,2.81,0,1,0-2.84-2.81,2.76,2.76,0,0,0,2.73,2.8h.11ZM121,43.23a2.21,2.21,0,0,0,0-4.41h0a2.21,2.21,0,0,0,0,4.41Z" fill="#fff"/></svg>