<svg xmlns="http://www.w3.org/2000/svg" width="100.29" height="22.59" viewBox="0 0 100.29 22.59"><path d="M97.44,16.73a2.88,2.88,0,1,0,2.85,2.88A2.87,2.87,0,0,0,97.44,16.73ZM88,14.5a4.12,4.12,0,0,0-8.24,0,4.12,4.12,0,0,0,8.24,0Zm0-7.66h4.55V22.17H88.06v-1A8,8,0,0,1,75.53,14.5a8.05,8.05,0,0,1,8-8.09,7.91,7.91,0,0,1,4.51,1.41v-1Zm-36.41,2v-2H47V22.17h4.67V15c0-2.42,2.59-3.71,4.39-3.71h0V6.84a5.7,5.7,0,0,0-4.46,2ZM40.05,14.5a4.12,4.12,0,0,0-8.24,0,4.12,4.12,0,0,0,8.24,0Zm0-7.66h4.55V22.17H40.07v-1A8,8,0,0,1,27.54,14.5a8.05,8.05,0,0,1,8-8.09,7.91,7.91,0,0,1,4.51,1.41v-1Zm27.38-.42a5.51,5.51,0,0,0-4.69,2.14V6.84H58.23V22.17h4.59V14.11a3.22,3.22,0,0,1,3.41-3.47c2,0,3.15,1.2,3.15,3.44v8.09h4.54V12.42c0-3.57-2.81-6-6.47-6ZM20.92,22.17h4.76V0H20.92ZM0,22.17H5V0H0ZM17.63,0a17.74,17.74,0,0,1-5.15,12.59l7,9.58H13.22L5.64,11.75l2-1.47A12.78,12.78,0,0,0,12.7,0Z" fill="#0a0b09"/></svg>