<svg xmlns="http://www.w3.org/2000/svg" width="70.9" height="43.83" viewBox="0 0 70.9 43.83"><path d="M68.8,35.49v-.7h.31v-.15h-.73v.15h.29v.7Zm1.41,0v-.85H70l-.25.61-.26-.61h-.22v.85h.16v-.64l.24.55h.16l.24-.55v.64Z" fill="#f79e1b"/><rect x="24.91" y="4.69" width="21.09" height="34.45" fill="#ff5f00"/><path d="M27.08,21.92A21.85,21.85,0,0,1,35.45,4.69a21.91,21.91,0,1,0,0,34.45A21.85,21.85,0,0,1,27.08,21.92Z" fill="#eb001b"/><path d="M70.9,21.92A21.91,21.91,0,0,1,35.45,39.14a21.88,21.88,0,0,0,0-34.45A21.91,21.91,0,0,1,70.9,21.91Z" fill="#f79e1b"/></svg>