<svg xmlns="http://www.w3.org/2000/svg" width="131" height="66" viewBox="0 0 131 66"><rect x="0.5" y="0.5" width="130" height="65" rx="11.06" fill="#eb7094" stroke="#d2d2d2" stroke-miterlimit="10"/><path d="M32,43.35c3.78,0,6.65-2.52,6.65-6.23,0-3.45-2.45-4.93-5.42-5.81-1.91-.54-3.1-1-3.1-2.32a2,2,0,0,1,2.13-2,2.92,2.92,0,0,1,2.52,1.61l3.13-2a5.89,5.89,0,0,0-5.55-3.25,5.83,5.83,0,0,0-6.16,5.84c0,2.51,1.51,4.42,5.22,5.51,2,.58,3.29,1,3.29,2.58a2.4,2.4,0,0,1-2.64,2.45,4.92,4.92,0,0,1-3.75-2.09l-2.58,2.58A7.53,7.53,0,0,0,32,43.35m15.23,0a7.07,7.07,0,1,1,7.23-7.07,7.17,7.17,0,0,1-7.23,7.07m0-3.55a3.52,3.52,0,1,0-3.45-3.52,3.43,3.43,0,0,0,3.45,3.52M63.79,27.15V23.6h-.55c-4.58,0-6.84,3.07-6.84,6.65V43h3.78V37.41a3.26,3.26,0,0,1,3.51-3.22V30.6a4.7,4.7,0,0,0-3.51,1.33V30.48c0-2.36,1.51-3.42,3.61-3.33M72,43.35a7.07,7.07,0,1,1,7.22-7.07A7.17,7.17,0,0,1,72,43.35m0-3.55a3.52,3.52,0,1,0-3.46-3.52A3.44,3.44,0,0,0,72,39.8M85,31.12V29.6H81.31V43h3.77V36.9c0-2.23,1.33-3.46,3.58-3.46v-4A3.77,3.77,0,0,0,85,31.12m9.65,5V32.86a4.7,4.7,0,0,0,3.52,1.33V30.6a3.3,3.3,0,0,1-3.52-3.22v-2.1H90.83v11.1C90.83,40,93.05,43,97.67,43h.54V39.48c-2.09.06-3.61-1-3.61-3.33m8.13,7.07a2.52,2.52,0,1,0-2.52-2.52,2.52,2.52,0,0,0,2.52,2.52" fill="#fff"/></svg>