<svg xmlns="http://www.w3.org/2000/svg" width="115.4" height="21.43" viewBox="0 0 115.4 21.43"><path d="M13.28,17H9.44L6.36,11.08c-2.35.84-2.87,1.64-2.87,3.58V17H0V0H6.47c3.8,0,6,1.94,6,5.25A4.82,4.82,0,0,1,9.55,9.88ZM3.49,9A9.73,9.73,0,0,1,6,7.83l.72-.23C8.33,7.06,9,6.36,9,5.22s-.93-2-2.63-2H3.49Zm22,2a5.75,5.75,0,0,1,0,.83,32.62,32.62,0,0,0-8.23,1,3,3,0,0,0,2.78,1.52A4.47,4.47,0,0,0,23.21,13L25,15.27a6.63,6.63,0,0,1-4.84,2,6.13,6.13,0,0,1-6.37-5.88c0-.11,0-.23,0-.34a6,6,0,0,1,5.9-6.15h.23a5.63,5.63,0,0,1,5.65,5.61c0,.16,0,.31,0,.47ZM19.73,7.89a2.77,2.77,0,0,0-2.79,2.54,22.27,22.27,0,0,1,5.27-.82,2.42,2.42,0,0,0-2.48-1.74Zm13,9.39a5.84,5.84,0,0,0,5.47-3.1l-2.92-1.51a2.93,2.93,0,0,1-2.6,1.43,3,3,0,1,1,2.6-4.62L38.16,8a5.82,5.82,0,0,0-5.47-3.1A6.18,6.18,0,0,0,32,17.26h.67ZM46.58,5a4.57,4.57,0,0,0-3.46,1.38V0h-3.3V17h3.3V10.79a2.69,2.69,0,1,1,5.38,0h0V17h3.28V10.18A4.93,4.93,0,0,0,47.15,5a3.62,3.62,0,0,0-.57,0ZM61.06,5a4.56,4.56,0,0,0-3.58,1.53V5.25H54.27V17h3.28V10.79a2.69,2.69,0,1,1,5.37,0h0V17h3.3V10.18A4.89,4.89,0,0,0,61.67,5a4.14,4.14,0,0,0-.61,0Zm15.7.27v6.33a2.55,2.55,0,0,1-5.09,0V5.23H68.39V12.1A4.83,4.83,0,0,0,73,17.2h.49a4.29,4.29,0,0,0,3.41-1.44V17h3.24V5.23ZM89.57,5A4.57,4.57,0,0,0,86,6.51V5.25H82.78V17h3.28V10.79a2.69,2.69,0,1,1,5.38,0h0V17h3.3V10.18A4.91,4.91,0,0,0,90.15,5a5.56,5.56,0,0,0-.58,0Zm20.08-.84a6.79,6.79,0,0,1-1.79,4.64,9.88,9.88,0,0,1,.62,3.69c0,4-1.79,9-7.67,9a9.36,9.36,0,0,1-2.17-.23V18.07a7.6,7.6,0,0,0,2.06.25A3.85,3.85,0,0,0,105,15.57a4.14,4.14,0,0,1-2.92,1,5.64,5.64,0,0,1-5.8-5.48,1.34,1.34,0,0,1,0-.2,5.91,5.91,0,0,1,6-5.88h.18a5.9,5.9,0,0,1,3.59,1.11,3.56,3.56,0,0,0,.48-2Zm-7.33,9.5a2.82,2.82,0,1,0-2.83-2.82,2.75,2.75,0,0,0,2.72,2.8h.11Zm10.88,3.58a2.21,2.21,0,0,0,0-4.41h0a2.21,2.21,0,0,0,0,4.41Z" fill="#fff"/></svg>