<svg xmlns="http://www.w3.org/2000/svg" width="79.49" height="20" viewBox="0 0 79.49 20"><path d="M6.26,20c3.77,0,6.64-2.51,6.64-6.22,0-3.46-2.45-4.94-5.42-5.81-1.9-.55-3.09-1-3.09-2.32a2,2,0,0,1,2.13-2A2.93,2.93,0,0,1,9,5.23l3.13-2A5.89,5.89,0,0,0,6.61,0,5.84,5.84,0,0,0,.45,5.84c0,2.52,1.52,4.42,5.23,5.52,2,.58,3.29,1,3.29,2.58a2.41,2.41,0,0,1-2.65,2.45,4.92,4.92,0,0,1-3.74-2.1L0,16.87A7.48,7.48,0,0,0,6.26,20m15.23,0a7.16,7.16,0,0,1-7.23-7.06,7.23,7.23,0,0,1,14.45,0A7.15,7.15,0,0,1,21.49,20m0-3.55a3.43,3.43,0,0,0,3.45-3.51,3.46,3.46,0,1,0-6.91,0,3.43,3.43,0,0,0,3.46,3.51M38,3.81V.26h-.55c-4.58,0-6.84,3.06-6.84,6.64V19.65h3.77V14.07a3.27,3.27,0,0,1,3.52-3.23V7.26a4.71,4.71,0,0,0-3.52,1.32V7.13c0-2.36,1.52-3.42,3.62-3.32M46.26,20A7.15,7.15,0,0,1,39,12.94a7.23,7.23,0,0,1,14.45,0A7.16,7.16,0,0,1,46.26,20m0-3.55a3.43,3.43,0,0,0,3.46-3.51,3.46,3.46,0,1,0-6.91,0,3.45,3.45,0,0,0,3.45,3.51M59.2,7.78V6.26H55.55V19.68h3.78V13.55c0-2.23,1.32-3.45,3.58-3.45v-4A3.74,3.74,0,0,0,59.2,7.78m9.65,5V9.52a4.69,4.69,0,0,0,3.51,1.32V7.26A3.31,3.31,0,0,1,68.85,4V1.94H65.07V13c0,3.58,2.23,6.65,6.84,6.65h.55V16.13c-2.1.07-3.61-1-3.61-3.32M77,19.87a2.52,2.52,0,1,0-2.52-2.51A2.52,2.52,0,0,0,77,19.87" fill="#fff"/></svg>