<svg xmlns="http://www.w3.org/2000/svg" width="70" height="70" viewBox="0 0 70 70"><path d="M57.89,14.1a79,79,0,0,1-20-9.7,5.24,5.24,0,0,0-5.76,0,79,79,0,0,1-20,9.7,3.89,3.89,0,0,0-2.85,3.59v19.7c0,9.27,4.42,17.24,12.79,23a43.26,43.26,0,0,0,12.66,6l.29.07.29-.07a43.26,43.26,0,0,0,12.66-6c8.37-5.79,12.79-13.76,12.79-23V17.69A3.89,3.89,0,0,0,57.89,14.1Zm.48,23.29c0,8.56-3.94,15.64-11.71,21A41.74,41.74,0,0,1,35,64a41.73,41.73,0,0,1-11.6-5.54C15.59,53.06,11.63,46,11.63,37.39V17.69a1.57,1.57,0,0,1,1.21-1.34,81.48,81.48,0,0,0,20.61-10,2.84,2.84,0,0,1,3.1,0,81.48,81.48,0,0,0,20.61,10,1.57,1.57,0,0,1,1.21,1.34Z"/><path d="M52.05,19a86.69,86.69,0,0,1-16.23-7.87,1.56,1.56,0,0,0-1.64,0A86.69,86.69,0,0,1,18,19a1.7,1.7,0,0,0-1.15,1.59v16.8a20.63,20.63,0,0,0,7,15.65,32.79,32.79,0,0,0,10.8,6.46l.41.15.41-.15a33.61,33.61,0,0,0,10.78-6.45,20.65,20.65,0,0,0,7-15.66V20.59A1.7,1.7,0,0,0,52.05,19ZM50.83,37.39c0,12.17-10.75,17.77-15.83,19.73-5.08-2-15.83-7.55-15.83-19.73V21.08A89.39,89.39,0,0,0,35,13.42a89.39,89.39,0,0,0,15.83,7.66Z"/><path d="M34.11,20.64c-.06.07-1.51,1.71-3.29,4.05a1.18,1.18,0,0,0,1.88,1.44c.9-1.18,1.72-2.19,2.3-2.89,3,3.55,8.41,10.77,8.41,14.35A9.71,9.71,0,0,1,40.9,44a7.6,7.6,0,0,1-11.8,0,9.66,9.66,0,0,1-2.51-6.38,9.75,9.75,0,0,1,1.34-4.16,1.19,1.19,0,1,0-2.12-1.07,12.08,12.08,0,0,0-1.59,5.23c0,6.16,5,11.57,10.78,11.57s10.78-5.41,10.78-11.57c0-5.59-8.88-15.81-9.89-17l-.89-1Z"/></svg>